<?xml version="1.0" standalone="no"?>
<!DOCTYPE svg PUBLIC "-//W3C//DTD SVG 20010904//EN"
 "http://www.w3.org/TR/2001/REC-SVG-20010904/DTD/svg10.dtd">
<svg version="1.0" xmlns="http://www.w3.org/2000/svg"
 width="1576.000000pt" height="774.000000pt" viewBox="0 0 1576.000000 774.000000"
 preserveAspectRatio="xMidYMid meet">

<g transform="translate(0.000000,774.000000) scale(0.100000,-0.100000)"
fill="#000000" stroke="none">
<path d="M30 4140 l0 -3560 7865 0 7865 0 0 3560 0 3560 -7865 0 -7865 0 0
-3560z m1590 2168 c0 -474 2 -505 20 -545 30 -68 65 -83 193 -83 124 0 153 11
190 70 22 35 22 41 25 548 l3 512 145 0 145 0 -3 -553 -3 -552 -33 -68 c-58
-118 -157 -198 -289 -232 -76 -20 -280 -20 -356 0 -172 45 -295 173 -326 340
-7 37 -11 242 -11 562 l0 503 150 0 150 0 0 -502z m1682 475 c66 -30 129 -92
164 -160 28 -57 29 -61 29 -218 l0 -160 -37 -69 -37 -68 35 -46 c53 -70 67
-133 62 -276 -8 -195 -60 -291 -196 -358 l-67 -33 -377 -3 -378 -3 0 711 0
711 378 -3 c362 -3 379 -4 424 -25z m1110 -6 c126 -62 222 -192 235 -320 l6
-58 -148 3 -148 3 -14 40 c-25 74 -37 80 -181 83 -113 2 -131 1 -159 -17 -67
-42 -68 -50 -68 -411 0 -301 1 -327 19 -356 34 -56 60 -64 204 -64 l130 0 25
30 c14 16 28 43 32 60 l7 30 150 0 151 0 -6 -54 c-17 -163 -160 -315 -326
-346 -69 -13 -263 -13 -332 0 -130 24 -252 118 -312 239 l-32 66 0 395 0 395
32 67 c53 113 137 188 258 230 42 15 79 18 235 16 180 -3 187 -4 242 -31z
m1202 -672 c97 -388 176 -707 176 -710 0 -3 -65 -5 -144 -5 -162 0 -146 -8
-166 85 -6 28 -15 67 -21 88 l-10 37 -172 -2 -171 -3 -25 -102 -25 -103 -149
0 c-137 0 -148 1 -143 18 3 9 82 312 176 672 94 360 176 672 181 693 l10 37
153 0 154 0 176 -705z m1129 673 c79 -37 160 -117 199 -195 28 -58 32 -77 36
-171 3 -91 1 -117 -18 -171 -52 -154 -164 -247 -332 -275 l-68 -12 230 -274
c126 -151 230 -278 230 -282 0 -5 -78 -8 -172 -8 l-173 0 -205 255 -205 255
-3 -255 -2 -255 -155 0 -155 0 0 710 0 711 368 -3 367 -3 58 -27z m1427 -103
l0 -135 -350 0 -350 0 0 -150 0 -150 350 0 350 0 0 -135 0 -135 -350 0 -350 0
0 -150 0 -150 348 -2 347 -3 0 -135 0 -135 -502 -3 -503 -2 0 710 0 710 505 0
505 0 0 -135z m-5900 -1995 l0 -150 -180 0 -180 0 0 -560 0 -561 -147 3 -148
3 -3 557 -2 558 -178 2 -177 3 -3 148 -3 147 511 0 510 0 0 -150z m1140 15 l0
-135 -350 0 -350 0 0 -150 0 -150 350 0 350 0 0 -135 0 -135 -350 0 -350 0 0
-150 0 -150 350 0 350 0 0 -140 0 -140 -505 0 -505 0 0 710 0 710 505 0 505 0
0 -135z m962 102 c126 -62 222 -192 235 -320 l6 -58 -148 3 -148 3 -14 40
c-25 74 -37 80 -181 83 -113 2 -131 1 -159 -17 -67 -42 -68 -50 -68 -411 0
-301 1 -327 19 -356 34 -56 60 -64 204 -64 l130 0 25 30 c14 16 28 43 32 60
l7 30 149 0 149 0 0 -33 c0 -19 -9 -60 -20 -93 -41 -119 -128 -212 -243 -257
-64 -25 -297 -36 -392 -18 -135 25 -257 117 -318 240 l-32 66 0 395 0 395 32
67 c53 113 137 188 258 230 42 15 79 18 235 16 180 -3 187 -4 242 -31z m708
-252 l0 -285 200 0 200 0 0 285 0 285 155 0 155 0 0 -710 0 -710 -155 0 -155
0 0 290 0 290 -200 0 -200 0 0 -290 0 -290 -155 0 -155 0 0 710 0 710 155 0
155 0 0 -285z m-2973 -1724 c71 -31 144 -111 173 -186 19 -50 23 -81 24 -185
1 -136 -12 -195 -60 -265 l-24 -37 25 -30 c64 -75 70 -100 70 -268 0 -150 -1
-157 -29 -218 -35 -75 -110 -148 -182 -177 -45 -18 -80 -20 -421 -23 l-373 -3
0 711 0 711 373 -3 c366 -3 373 -3 424 -27z m603 -541 l0 -570 380 0 380 0 0
-140 0 -140 -525 0 -525 0 0 710 0 710 145 0 145 0 0 -570z m1660 534 c95 -45
162 -111 207 -202 l38 -76 0 -395 0 -396 -32 -66 c-59 -121 -182 -215 -312
-239 -72 -13 -257 -13 -323 1 -168 35 -307 174 -338 338 -13 70 -13 652 0 721
21 111 99 227 192 286 86 54 139 64 328 62 173 -3 176 -3 240 -34z m1192 4
c32 -15 74 -39 93 -54 74 -56 137 -170 151 -274 l7 -51 -148 3 -147 3 -13 39
c-27 76 -38 81 -194 81 -135 0 -140 -1 -166 -25 -55 -51 -55 -54 -55 -395 0
-350 3 -369 62 -405 29 -17 50 -20 168 -20 107 0 140 3 158 16 41 29 52 66 52
179 l0 105 -115 0 -115 0 0 130 0 130 255 0 255 0 0 -425 0 -425 -140 0 c-120
0 -140 2 -140 16 0 10 -6 14 -17 10 -99 -30 -293 -35 -386 -11 -172 45 -295
173 -326 340 -14 73 -15 627 -1 708 25 157 135 283 295 339 42 15 79 18 230
16 172 -3 183 -4 237 -30z"/>
<path d="M2790 6380 l0 -140 165 0 c186 0 212 7 242 63 21 41 21 113 -1 155
-28 53 -63 62 -246 62 l-160 0 0 -140z"/>
<path d="M2790 5825 l0 -135 176 0 c193 0 215 6 248 60 20 35 21 112 1 150
-29 57 -42 60 -242 60 l-183 0 0 -135z"/>
<path d="M5272 6275 c-13 -47 -102 -414 -102 -421 0 -2 50 -4 110 -4 61 0 110
2 110 4 0 6 -100 439 -104 451 -2 6 -8 -8 -14 -30z"/>
<path d="M6260 6390 l0 -140 168 0 c149 0 170 2 200 20 42 26 55 61 50 132 -5
67 -31 102 -87 118 -20 5 -102 10 -183 10 l-148 0 0 -140z"/>
<path d="M1590 2420 l0 -140 168 0 c113 0 175 4 191 13 88 45 93 195 9 247
-30 18 -50 20 -200 20 l-168 0 0 -140z"/>
<path d="M1590 1865 l0 -135 175 0 c189 0 217 6 247 52 40 60 29 149 -23 192
-30 26 -31 26 -215 26 l-184 0 0 -135z"/>
<path d="M3985 2560 c-27 -11 -61 -49 -74 -83 -7 -18 -11 -143 -11 -339 0
-344 3 -362 64 -399 26 -16 51 -19 153 -19 122 0 122 0 157 31 52 45 58 90 54
426 -3 268 -4 290 -23 323 -33 56 -73 70 -195 69 -58 0 -114 -4 -125 -9z"/>
</g>
</svg>
