<svg width="1627" height="1398" xmlns="http://www.w3.org/2000/svg" xmlns:xlink="http://www.w3.org/1999/xlink" overflow="hidden"><defs><clipPath id="clip0"><rect x="1966" y="747" width="1627" height="1398"/></clipPath><linearGradient x1="2050.77" y1="832.097" x2="2216.92" y2="998.247" gradientUnits="userSpaceOnUse" spreadMethod="reflect" id="fill1"><stop offset="0" stop-color="#00DC6C" stop-opacity="1"/><stop offset="0.38" stop-color="#00D06E" stop-opacity="1"/><stop offset="0.69" stop-color="#00DBA8" stop-opacity="1"/><stop offset="1" stop-color="#1EE3DE" stop-opacity="1"/></linearGradient><linearGradient x1="2307" y1="1732.5" x2="3251" y2="1732.5" gradientUnits="userSpaceOnUse" spreadMethod="reflect" id="fill2"><stop offset="0" stop-color="#00DC6C" stop-opacity="1"/><stop offset="0.38" stop-color="#00D06E" stop-opacity="1"/><stop offset="0.69" stop-color="#00DBA8" stop-opacity="1"/><stop offset="1" stop-color="#1EE3DE" stop-opacity="1"/></linearGradient><linearGradient x1="3341.15" y1="836.271" x2="3507.3" y2="1002.42" gradientUnits="userSpaceOnUse" spreadMethod="reflect" id="fill3"><stop offset="0" stop-color="#00DC6C" stop-opacity="1"/><stop offset="0.38" stop-color="#00D06E" stop-opacity="1"/><stop offset="0.69" stop-color="#00DBA8" stop-opacity="1"/><stop offset="1" stop-color="#1EE3DE" stop-opacity="1"/></linearGradient><linearGradient x1="2023" y1="1618.5" x2="2245.02" y2="1618.5" gradientUnits="userSpaceOnUse" spreadMethod="reflect" id="fill4"><stop offset="0" stop-color="#00DC6C" stop-opacity="1"/><stop offset="0.38" stop-color="#00D06E" stop-opacity="1"/><stop offset="0.69" stop-color="#00DBA8" stop-opacity="1"/><stop offset="1" stop-color="#1EE3DE" stop-opacity="1"/></linearGradient><linearGradient x1="3313" y1="1618.5" x2="3535.02" y2="1618.5" gradientUnits="userSpaceOnUse" spreadMethod="reflect" id="fill5"><stop offset="0" stop-color="#00DC6C" stop-opacity="1"/><stop offset="0.38" stop-color="#00D06E" stop-opacity="1"/><stop offset="0.69" stop-color="#00DBA8" stop-opacity="1"/><stop offset="1" stop-color="#1EE3DE" stop-opacity="1"/></linearGradient><linearGradient x1="2016" y1="912.5" x2="2251" y2="912.5" gradientUnits="userSpaceOnUse" spreadMethod="reflect" id="fill6"><stop offset="0" stop-color="#00DC6C" stop-opacity="1"/><stop offset="0.38" stop-color="#00D06E" stop-opacity="1"/><stop offset="0.69" stop-color="#00DBA8" stop-opacity="1"/><stop offset="1" stop-color="#1EE3DE" stop-opacity="1"/></linearGradient><linearGradient x1="3307" y1="919.5" x2="3542" y2="919.5" gradientUnits="userSpaceOnUse" spreadMethod="reflect" id="fill7"><stop offset="0" stop-color="#00DC6C" stop-opacity="1"/><stop offset="0.38" stop-color="#00D06E" stop-opacity="1"/><stop offset="0.69" stop-color="#00DBA8" stop-opacity="1"/><stop offset="1" stop-color="#1EE3DE" stop-opacity="1"/></linearGradient></defs><g clip-path="url(#clip0)" transform="translate(-1966 -747)"><path d="M2133.84 749.022 2299.99 915.172 2133.84 1081.32 1967.69 915.172Z" fill="url(#fill1)" fill-rule="evenodd"/><rect x="2307" y="1320" width="944" height="825" fill="url(#fill2)"/><path d="M2410 1457.67C2410 1450.67 2415.67 1445 2422.67 1445L2473.33 1445C2480.33 1445 2486 1450.67 2486 1457.67L2486 2007.33C2486 2014.33 2480.33 2020 2473.33 2020L2422.67 2020C2415.67 2020 2410 2014.33 2410 2007.33Z" fill="#FFFFFF" fill-rule="evenodd" fill-opacity="1"/><path d="M2575 1457.83C2575 1450.75 2580.75 1445 2587.83 1445L2639.17 1445C2646.25 1445 2652 1450.75 2652 1457.83L2652 2007.17C2652 2014.25 2646.25 2020 2639.17 2020L2587.83 2020C2580.75 2020 2575 2014.25 2575 2007.17Z" fill="#FFFFFF" fill-rule="evenodd" fill-opacity="1"/><path d="M2741 1457.67C2741 1450.67 2746.67 1445 2753.67 1445L2804.33 1445C2811.33 1445 2817 1450.67 2817 1457.67L2817 2007.33C2817 2014.33 2811.33 2020 2804.33 2020L2753.67 2020C2746.67 2020 2741 2014.33 2741 2007.33Z" fill="#FFFFFF" fill-rule="evenodd" fill-opacity="1"/><path d="M2907 1457.67C2907 1450.67 2912.67 1445 2919.67 1445L2970.33 1445C2977.33 1445 2983 1450.67 2983 1457.67L2983 2007.33C2983 2014.33 2977.33 2020 2970.33 2020L2919.67 2020C2912.67 2020 2907 2014.33 2907 2007.33Z" fill="#FFFFFF" fill-rule="evenodd" fill-opacity="1"/><path d="M3072 1457.67C3072 1450.67 3077.67 1445 3084.67 1445L3135.33 1445C3142.33 1445 3148 1450.67 3148 1457.67L3148 2007.33C3148 2014.33 3142.33 2020 3135.33 2020L3084.67 2020C3077.67 2020 3072 2014.33 3072 2007.33Z" fill="#FFFFFF" fill-rule="evenodd" fill-opacity="1"/><path d="M3424.22 753.197 3590.37 919.346 3424.22 1085.5 3258.07 919.346Z" fill="url(#fill3)" fill-rule="evenodd"/><path d="M2023 1112.04C2023 1100.97 2031.97 1092 2043.04 1092L2224.97 1092C2236.04 1092 2245.02 1100.97 2245.02 1112.04L2245.02 2124.96C2245.02 2136.03 2236.04 2145 2224.97 2145L2043.04 2145C2031.97 2145 2023 2136.03 2023 2124.96Z" fill="url(#fill4)" fill-rule="evenodd"/><path d="M3313 1112.04C3313 1100.97 3321.97 1092 3333.04 1092L3514.97 1092C3526.04 1092 3535.02 1100.97 3535.02 1112.04L3535.02 2124.96C3535.02 2136.03 3526.04 2145 3514.97 2145L3333.04 2145C3321.97 2145 3313 2136.03 3313 2124.96Z" fill="url(#fill5)" fill-rule="evenodd"/><path d="M2016 795 2251 795 2251 1030 2016 1030Z" fill="url(#fill6)" fill-rule="evenodd"/><path d="M3307 802 3542 802 3542 1037 3307 1037Z" fill="url(#fill7)" fill-rule="evenodd"/></g></svg>