<svg width="1246" height="1802" xmlns="http://www.w3.org/2000/svg" xmlns:xlink="http://www.w3.org/1999/xlink" overflow="hidden"><defs><clipPath id="clip0"><rect x="1251" y="430" width="1246" height="1802"/></clipPath></defs><g clip-path="url(#clip0)" transform="translate(-1251 -430)"><path d="M1708.56 2217 1707.44 2217C1675.16 2217 1649 2190.84 1649 2158.56L1649 1815 1767 1815 1767 2158.56C1767 2190.84 1740.84 2217 1708.56 2217Z" stroke="#000000" stroke-width="13.75" stroke-linecap="butt" stroke-linejoin="miter" stroke-miterlimit="8" stroke-opacity="1" fill="#FFFFFF" fill-rule="evenodd" fill-opacity="1"/><path d="M2058.06 2222 2056.94 2222C2024.94 2222 1999 2196.06 1999 2164.06L1999 1819 2116 1819 2116 2164.06C2116 2196.06 2090.06 2222 2058.06 2222Z" stroke="#000000" stroke-width="13.75" stroke-linecap="butt" stroke-linejoin="miter" stroke-miterlimit="8" stroke-opacity="1" fill="#FFFFFF" fill-rule="evenodd" fill-opacity="1"/><path d="M2040.93 1956.66C1915.46 1921.38 1856.87 1930.7 1744.77 1957.85 1634.78 1958.29 1545.25 1869.48 1544.81 1759.49L1544 1556.51 2238.48 1553.72 2239.3 1756.7C2239.74 1866.7 2150.93 1956.22 2040.93 1956.66Z" stroke="#000000" stroke-width="13.75" stroke-linecap="butt" stroke-linejoin="miter" stroke-miterlimit="8" stroke-opacity="1" fill="#FFFFFF" fill-rule="evenodd" fill-opacity="1"/><path d="M1506.58 1479.63C1521.35 1396.38 1566.68 1343.54 1595.13 1342.97L2174.3 1334.75C2235.22 1334.18 2262.84 1449.3 2263.47 1481.23 2276.7 1596.25 2275.95 1627.4 2282.82 1723.21 2283.46 1755.15 2284.27 1850.59 2132.9 1833.92 1920.27 1818.63 1836.26 1866.33 1636.54 1837.71 1489.55 1846.92 1498.21 1752.83 1497.57 1720.9 1496.6 1581.01 1488.63 1610.16 1506.58 1479.63Z" stroke="#000000" stroke-width="13.75" stroke-linecap="butt" stroke-linejoin="miter" stroke-miterlimit="8" stroke-opacity="1" fill="#FF8A00" fill-rule="evenodd" fill-opacity="1"/><path d="M1280.62 620.016C1279.37 489.32 1507.01 380.065 1610.95 472.465 1782.8 573.501 1959.1 629.942 2153.25 481.249 2306.24 372.973 2477.93 489.124 2483.64 628.738 2486.66 867.046 2517.47 1126.55 2365.53 1322.32 2284.85 1434.69 2256.72 1448.15 2157.24 1458.32L1578.56 1459.91C1483.54 1429.95 1481.11 1417.78 1376.49 1312.56 1242.05 1149.59 1247.17 901.404 1280.62 620.016Z" stroke="#000000" stroke-width="13.75" stroke-linecap="butt" stroke-linejoin="miter" stroke-miterlimit="8" stroke-opacity="1" fill="#FF8A00" fill-rule="evenodd" fill-opacity="1"/><path d="M1365.56 853.295C1413.17 724.784 1500.45 654.096 1642.55 679.2 1832.3 757.314 1883.8 786.377 2069.09 690.573 2206.73 617.569 2340.94 725.712 2382.52 840.845 2401.07 964.869 2376.33 1074.4 2323.79 1196.16 2254.83 1331.76 2236.41 1322.93 2161.19 1378.09L1605.33 1384.56C1503.36 1314.86 1467.97 1292.13 1409.69 1158.27 1375.66 1065.53 1346.08 1021.85 1365.56 853.295Z" stroke="#000000" stroke-width="13.75" stroke-linecap="butt" stroke-linejoin="miter" stroke-miterlimit="8" stroke-opacity="1" fill="#FFFFFF" fill-rule="evenodd" fill-opacity="1"/><path d="M1572.57 963.27C1581.23 919.793 1623.5 891.573 1666.98 900.238 1710.45 908.903 1738.67 951.173 1730.01 994.65 1721.34 1038.13 1679.07 1066.35 1635.6 1057.68 1592.12 1049.02 1563.9 1006.75 1572.57 963.27Z" stroke="#000000" stroke-width="13.75" stroke-linecap="butt" stroke-linejoin="miter" stroke-miterlimit="8" stroke-opacity="1" fill="#000000" fill-rule="evenodd" fill-opacity="1"/><path d="M1650.63 970.87C1653.39 956.982 1666.9 947.967 1680.79 950.735 1694.67 953.503 1703.69 967.006 1700.92 980.895 1698.15 994.783 1684.65 1003.8 1670.76 1001.03 1656.87 998.262 1647.86 984.759 1650.63 970.87Z" stroke="#000000" stroke-width="13.75" stroke-linecap="butt" stroke-linejoin="miter" stroke-miterlimit="8" stroke-opacity="1" fill="#FFFFFF" fill-rule="evenodd" fill-opacity="1"/><path d="M2018.31 970.262C2026.98 926.785 2069.24 898.565 2112.72 907.23 2156.2 915.896 2184.42 958.165 2175.75 1001.64 2167.09 1045.12 2124.82 1073.34 2081.34 1064.67 2037.86 1056.01 2009.64 1013.74 2018.31 970.262Z" stroke="#000000" stroke-width="13.75" stroke-linecap="butt" stroke-linejoin="miter" stroke-miterlimit="8" stroke-opacity="1" fill="#000000" fill-rule="evenodd" fill-opacity="1"/><path d="M2096.37 977.863C2099.14 963.974 2112.64 954.96 2126.53 957.728 2140.42 960.496 2149.43 973.999 2146.67 987.887 2143.9 1001.78 2130.4 1010.79 2116.51 1008.02 2102.62 1005.25 2093.6 991.752 2096.37 977.863Z" stroke="#000000" stroke-width="13.75" stroke-linecap="butt" stroke-linejoin="miter" stroke-miterlimit="8" stroke-opacity="1" fill="#FFFFFF" fill-rule="evenodd" fill-opacity="1"/><path d="M1944.04 1128.53C1925.75 1167.58 1879.27 1184.4 1840.22 1166.11 1822.67 1157.88 1808.8 1143.42 1801.32 1125.53L1804.65 1124.14C1820.52 1162.08 1864.13 1179.97 1902.07 1164.11 1919.13 1156.97 1932.93 1143.74 1940.77 1127Z" stroke="#000000" stroke-width="13.75" stroke-linecap="butt" stroke-linejoin="miter" stroke-miterlimit="8" stroke-opacity="1" fill="#000000" fill-rule="evenodd" fill-opacity="1"/><path d="M2055.85 1147.43C2055.17 1113.85 2103.71 1085.64 2164.27 1084.42 2224.83 1083.2 2274.48 1109.42 2275.15 1143 2275.83 1176.57 2227.29 1204.78 2166.73 1206 2106.17 1207.23 2056.53 1181 2055.85 1147.43Z" stroke="#000000" stroke-width="13.75" stroke-linecap="butt" stroke-linejoin="miter" stroke-miterlimit="8" stroke-opacity="1" fill="#F4B183" fill-rule="evenodd" fill-opacity="1"/><path d="M1485.6 1154.5C1484.93 1120.93 1533.47 1092.72 1594.03 1091.5 1654.59 1090.27 1704.23 1116.5 1704.91 1150.07 1705.59 1183.65 1657.04 1211.86 1596.49 1213.08 1535.93 1214.3 1486.28 1188.08 1485.6 1154.5Z" stroke="#000000" stroke-width="13.75" stroke-linecap="butt" stroke-linejoin="miter" stroke-miterlimit="8" stroke-opacity="1" fill="#F4B183" fill-rule="evenodd" fill-opacity="1"/><path d="M1894.85 1388.68C2026.23 1104.86 2506.46 1402.66 1886.43 1757.27 1283.25 1374.7 1776.59 1099.15 1894.85 1388.68Z" stroke="#000000" stroke-width="13.75" stroke-linecap="butt" stroke-linejoin="miter" stroke-miterlimit="8" stroke-opacity="1" fill="#FF0000" fill-rule="evenodd" fill-opacity="1"/><path d="M2007.82 1601.25 2007.82 1601.25C1994.63 1571.31 1998.38 1555.19 2027.55 1527.83 2056.73 1500.46 2116.21 1466.41 2182.87 1437.05 2227.13 1428.27 2234.4 1455.38 2243.67 1481.73 2249.26 1504.62 2241.75 1525.45 2235.9 1551.85 2221.04 1576.41 2213.21 1578.96 2201.35 1586.03L2075.31 1636.25C2051.22 1646.86 2021 1631.19 2007.82 1601.25Z" stroke="#000000" stroke-width="13.75" stroke-linecap="butt" stroke-linejoin="miter" stroke-miterlimit="8" stroke-opacity="1" fill="#FFFFFF" fill-rule="evenodd" fill-opacity="1"/><path d="M1782.6 1625.68 1782.6 1625.68C1768.31 1654.61 1750.12 1662.57 1711.28 1655.61 1672.43 1648.65 1619 1618.22 1549.53 1583.9 1537.68 1570.37 1532.55 1563.44 1528.4 1538.23 1527.14 1517.83 1533.39 1504.17 1538.96 1479.33 1547.32 1460.21 1551.83 1446.93 1574.02 1442.94 1651.34 1450.85 1693.56 1516.53 1763.03 1550.85 1788.13 1563.25 1796.89 1596.75 1782.6 1625.68Z" stroke="#000000" stroke-width="13.75" stroke-linecap="butt" stroke-linejoin="miter" stroke-miterlimit="8" stroke-opacity="1" fill="#FFFFFF" fill-rule="evenodd" fill-opacity="1"/><path d="M1633.15 2109 1726.85 2109C1749.02 2109 1767 2126.98 1767 2149.15L1767 2217 1593 2217 1593 2149.15C1593 2126.98 1610.98 2109 1633.15 2109Z" stroke="#000000" stroke-width="13.75" stroke-linecap="butt" stroke-linejoin="miter" stroke-miterlimit="8" stroke-opacity="1" fill="#FF8A00" fill-rule="evenodd" fill-opacity="1"/><rect x="0" y="0" width="174" height="48.0001" stroke="#000000" stroke-width="13.75" stroke-linecap="butt" stroke-linejoin="miter" stroke-miterlimit="8" stroke-opacity="1" fill="#FFFFFF" fill-opacity="1" transform="matrix(1 0 0 -1 1593 2222)"/><path d="M2034.15 2109 2127.85 2109C2150.02 2109 2168 2126.98 2168 2149.15L2168 2217 1994 2217 1994 2149.15C1994 2126.98 2011.98 2109 2034.15 2109Z" stroke="#000000" stroke-width="13.75" stroke-linecap="butt" stroke-linejoin="miter" stroke-miterlimit="8" stroke-opacity="1" fill="#FF8A00" fill-rule="evenodd" fill-opacity="1"/><rect x="0" y="0" width="174" height="48.0001" stroke="#000000" stroke-width="13.75" stroke-linecap="butt" stroke-linejoin="miter" stroke-miterlimit="8" stroke-opacity="1" fill="#FFFFFF" fill-opacity="1" transform="matrix(1 0 0 -1 1994 2222)"/><path d="M2023.08 1308.17C2033.83 1306.12 2041.93 1305.91 2043.97 1306.62 2107.04 1312.57 2102.73 1318.33 2121.59 1335.71 2143.29 1353.69 2134.37 1349.8 2141.76 1358.48 2143.32 1373.13 2132.42 1372.89 2123.51 1369.15 2116.91 1362.07 2119.91 1366.4 2106.12 1351.59 2082.13 1327.39 2078.42 1331.34 2028.56 1331.11 2020.87 1330 2018.96 1330.19 2013.85 1321.51 2012.86 1315.79 2017.73 1313.25 2023.08 1308.17Z" stroke="#000000" stroke-width="13.75" stroke-linecap="butt" stroke-linejoin="miter" stroke-miterlimit="8" stroke-opacity="1" fill="#FFFFFF" fill-rule="evenodd" fill-opacity="1"/><path d="M2139 1391.5C2139 1384.6 2144.6 1379 2151.5 1379 2158.4 1379 2164 1384.6 2164 1391.5 2164 1398.4 2158.4 1404 2151.5 1404 2144.6 1404 2139 1398.4 2139 1391.5Z" stroke="#000000" stroke-width="13.75" stroke-linecap="butt" stroke-linejoin="miter" stroke-miterlimit="8" stroke-opacity="1" fill="#FFFFFF" fill-rule="evenodd" fill-opacity="1"/><path d="M1997.5 845C1997.5 822.632 2045.85 804.5 2105.5 804.5 2165.15 804.5 2213.5 822.632 2213.5 845L2193.25 845C2193.25 833.816 2153.96 824.75 2105.5 824.75 2057.04 824.75 2017.75 833.816 2017.75 845Z" stroke="#000000" stroke-width="4.58333" stroke-linecap="butt" stroke-linejoin="miter" stroke-miterlimit="8" stroke-opacity="1" fill="#000000" fill-rule="evenodd" fill-opacity="1"/><path d="M1530.5 845C1530.5 822.632 1578.85 804.5 1638.5 804.5 1698.15 804.5 1746.5 822.632 1746.5 845L1726.25 845C1726.25 833.816 1686.96 824.75 1638.5 824.75 1590.04 824.75 1550.75 833.816 1550.75 845Z" stroke="#000000" stroke-width="4.58333" stroke-linecap="butt" stroke-linejoin="miter" stroke-miterlimit="8" stroke-opacity="1" fill="#000000" fill-rule="evenodd" fill-opacity="1"/></g></svg>