<svg width="2581" height="2393" xmlns="http://www.w3.org/2000/svg" xmlns:xlink="http://www.w3.org/1999/xlink" overflow="hidden"><defs><clipPath id="clip0"><rect x="1049" y="123" width="2581" height="2393"/></clipPath></defs><g clip-path="url(#clip0)" transform="translate(-1049 -123)"><path d="M2755.4 2200 2754.6 2200C2731.63 2200 2713 2181.37 2713 2158.4L2713 1911 2797 1911 2797 2158.4C2797 2181.37 2778.37 2200 2755.4 2200Z" stroke="#000000" stroke-width="13.75" stroke-linecap="butt" stroke-linejoin="miter" stroke-miterlimit="8" stroke-opacity="1" fill="#FFFFFF" fill-rule="evenodd" fill-opacity="1"/><path d="M3168.4 2229 3167.6 2229C3144.63 2229 3126 2210.37 3126 2187.4L3126 1940 3210 1940 3210 2187.4C3210 2210.37 3191.37 2229 3168.4 2229Z" stroke="#000000" stroke-width="13.75" stroke-linecap="butt" stroke-linejoin="miter" stroke-miterlimit="8" stroke-opacity="1" fill="#FFFFFF" fill-rule="evenodd" fill-opacity="1"/><path d="M2702 2148 2769 2148C2785.02 2148 2798 2160.98 2798 2177L2798 2226 2673 2226 2673 2177C2673 2160.98 2685.98 2148 2702 2148Z" stroke="#000000" stroke-width="13.75" stroke-linecap="butt" stroke-linejoin="miter" stroke-miterlimit="8" stroke-opacity="1" fill="#7030A0" fill-rule="evenodd" fill-opacity="1"/><rect x="0" y="0" width="125" height="34.9997" stroke="#000000" stroke-width="13.75" stroke-linecap="butt" stroke-linejoin="miter" stroke-miterlimit="8" stroke-opacity="1" fill="#FFFFFF" fill-opacity="1" transform="matrix(1 0 0 -1 2673 2229)"/><path d="M3152 2148 3218 2148C3234.02 2148 3247 2160.98 3247 2177L3247 2226 3123 2226 3123 2177C3123 2160.98 3135.98 2148 3152 2148Z" stroke="#000000" stroke-width="13.75" stroke-linecap="butt" stroke-linejoin="miter" stroke-miterlimit="8" stroke-opacity="1" fill="#7030A0" fill-rule="evenodd" fill-opacity="1"/><rect x="0" y="0" width="124" height="34.9997" stroke="#000000" stroke-width="13.75" stroke-linecap="butt" stroke-linejoin="miter" stroke-miterlimit="8" stroke-opacity="1" fill="#FFFFFF" fill-opacity="1" transform="matrix(1 0 0 -1 3123 2229)"/><path d="M3205.39 2025.06C3025.74 2000.11 2941.79 2006.96 2781.13 2026.76 2623.55 2027.39 2495.56 1963.93 2495.24 1885.02L2494.66 1739.39 3489.55 1735.4 3490.13 1881.03C3490.45 1959.94 3362.97 2024.43 3205.39 2025.06Z" stroke="#000000" stroke-width="13.75" stroke-linecap="butt" stroke-linejoin="miter" stroke-miterlimit="8" stroke-opacity="1" fill="#FFFFFF" fill-rule="evenodd" fill-opacity="1"/><path d="M2332.65 1839.88C2230.66 1548.77 2471.82 1037.65 2570.55 643L3322.83 643C3421.55 1037.65 3585.02 1412.88 3619 1826.94 3054.25 2001.65 2690.21 1788.11 2332.65 1839.88Z" stroke="#000000" stroke-width="13.75" stroke-linecap="butt" stroke-linejoin="miter" stroke-miterlimit="8" stroke-opacity="1" fill="#7030A0" fill-rule="evenodd" fill-opacity="1"/><path d="M2577.74 694.741C2534.99 587.504 2716.84 270.135 2807.3 187.451 2897.76 104.768 3029.34 125.729 3120.52 198.642 3211.71 271.554 3364.11 616.734 3317.75 720.788 3069.08 1179.98 2821.32 1060.81 2577.74 694.741Z" stroke="#000000" stroke-width="13.75" stroke-linecap="butt" stroke-linejoin="miter" stroke-miterlimit="8" stroke-opacity="1" fill="#7030A0" fill-rule="evenodd" fill-opacity="1"/><path d="M2667.38 768.217C2635.15 684.15 2778.18 433.005 2848.76 367.246 2919.34 301.487 3020.92 316.98 3090.87 373.664 3160.83 430.348 3276.04 700.831 3239.39 783.071 3043.61 1146.34 2852.94 1054.45 2667.38 768.217Z" stroke="#000000" stroke-width="13.75" stroke-linecap="butt" stroke-linejoin="miter" stroke-miterlimit="8" stroke-opacity="1" fill="#FFFFFF" fill-rule="evenodd" fill-opacity="1"/><path d="M2751.16 689.407C2757.37 658.214 2787.7 637.967 2818.89 644.184 2850.08 650.401 2870.33 680.728 2864.11 711.921 2857.9 743.114 2827.57 763.361 2796.38 757.143 2765.19 750.926 2744.94 720.6 2751.16 689.407Z" stroke="#000000" stroke-width="13.75" stroke-linecap="butt" stroke-linejoin="miter" stroke-miterlimit="8" stroke-opacity="1" fill="#000000" fill-rule="evenodd" fill-opacity="1"/><path d="M2807.16 694.86C2809.15 684.896 2818.83 678.428 2828.8 680.414 2838.76 682.4 2845.23 692.088 2843.25 702.052 2841.26 712.017 2831.57 718.485 2821.61 716.499 2811.64 714.513 2805.18 704.825 2807.16 694.86Z" stroke="#000000" stroke-width="13.75" stroke-linecap="butt" stroke-linejoin="miter" stroke-miterlimit="8" stroke-opacity="1" fill="#FFFFFF" fill-rule="evenodd" fill-opacity="1"/><path d="M3070.96 694.424C3077.18 663.231 3107.5 642.984 3138.7 649.201 3169.89 655.418 3190.14 685.745 3183.92 716.937 3177.7 748.13 3147.37 768.377 3116.18 762.16 3084.99 755.943 3064.74 725.616 3070.96 694.424Z" stroke="#000000" stroke-width="13.75" stroke-linecap="butt" stroke-linejoin="miter" stroke-miterlimit="8" stroke-opacity="1" fill="#000000" fill-rule="evenodd" fill-opacity="1"/><path d="M3126.96 699.877C3128.95 689.912 3138.64 683.444 3148.6 685.43 3158.57 687.416 3165.04 697.104 3163.05 707.069 3161.06 717.033 3151.38 723.501 3141.41 721.515 3131.45 719.529 3124.98 709.841 3126.96 699.877Z" stroke="#000000" stroke-width="13.75" stroke-linecap="butt" stroke-linejoin="miter" stroke-miterlimit="8" stroke-opacity="1" fill="#FFFFFF" fill-rule="evenodd" fill-opacity="1"/><path d="M3020.59 907.71C3007.46 935.723 2974.11 947.793 2946.1 934.669 2933.51 928.768 2923.56 918.392 2918.19 905.559L2920.58 904.56C2931.96 931.779 2963.26 944.617 2990.48 933.233 3002.72 928.114 3012.61 918.625 3018.24 906.611Z" stroke="#000000" stroke-width="13.75" stroke-linecap="butt" stroke-linejoin="miter" stroke-miterlimit="8" stroke-opacity="1" fill="#000000" fill-rule="evenodd" fill-opacity="1"/><path d="M3087.9 860.096C3087.23 827.248 3134.72 799.649 3193.97 798.452 3253.22 797.255 3301.79 822.913 3302.46 855.761 3303.12 888.609 3255.63 916.207 3196.38 917.404 3137.13 918.602 3088.56 892.944 3087.9 860.096Z" stroke="#000000" stroke-width="13.75" stroke-linecap="butt" stroke-linejoin="miter" stroke-miterlimit="8" stroke-opacity="1" fill="#F4B183" fill-rule="evenodd" fill-opacity="1"/><path d="M2625.7 856.326C2625.06 824.655 2673.09 798 2732.98 796.79 2792.87 795.58 2841.94 820.273 2842.58 851.944 2843.22 883.615 2795.19 910.271 2735.3 911.48 2675.41 912.69 2626.34 887.997 2625.7 856.326Z" stroke="#000000" stroke-width="13.75" stroke-linecap="butt" stroke-linejoin="miter" stroke-miterlimit="8" stroke-opacity="1" fill="#F4B183" fill-rule="evenodd" fill-opacity="1"/><path d="M3055.5 593.5C3055.5 577.484 3090.2 564.5 3133 564.5 3175.8 564.5 3210.5 577.484 3210.5 593.5L3196 593.5C3196 585.492 3167.79 579 3133 579 3098.21 579 3070 585.492 3070 593.5Z" stroke="#000000" stroke-width="4.58333" stroke-linecap="butt" stroke-linejoin="miter" stroke-miterlimit="8" stroke-opacity="1" fill="#000000" fill-rule="evenodd" fill-opacity="1"/><path d="M2720.5 593.5C2720.5 577.484 2755.2 564.5 2798 564.5 2840.8 564.5 2875.5 577.484 2875.5 593.5L2861 593.5C2861 585.492 2832.79 579 2798 579 2763.21 579 2735 585.492 2735 593.5Z" stroke="#000000" stroke-width="4.58333" stroke-linecap="butt" stroke-linejoin="miter" stroke-miterlimit="8" stroke-opacity="1" fill="#000000" fill-rule="evenodd" fill-opacity="1"/><path d="M2891.68 1293.09C2965.62 1133.35 3235.89 1300.96 2886.94 1500.52 2547.48 1285.22 2825.13 1130.14 2891.68 1293.09Z" stroke="#000000" stroke-width="13.75" stroke-linecap="butt" stroke-linejoin="miter" stroke-miterlimit="8" stroke-opacity="1" fill="#FF0000" fill-rule="evenodd" fill-opacity="1"/><path d="M2855.83 2223 2855.17 2223C2836.3 2223 2821 2207.7 2821 2188.83L2821 1935 2890 1935 2890 2188.83C2890 2207.7 2874.7 2223 2855.83 2223Z" stroke="#000000" stroke-width="13.75" stroke-linecap="butt" stroke-linejoin="miter" stroke-miterlimit="8" stroke-opacity="1" fill="#FFFFFF" fill-rule="evenodd" fill-opacity="1"/><path d="M2988.82 2218 2988.18 2218C2969.86 2218 2955 2203.14 2955 2184.82L2955 1930 3022 1930 3022 2184.82C3022 2203.14 3007.14 2218 2988.82 2218Z" stroke="#000000" stroke-width="13.75" stroke-linecap="butt" stroke-linejoin="miter" stroke-miterlimit="8" stroke-opacity="1" fill="#FFFFFF" fill-rule="evenodd" fill-opacity="1"/><path d="M2989.3 2104.53C2927.69 2079.1 2898.95 2085.73 2843.96 2105.11 2789.97 2105.33 2745.96 2041.53 2745.64 1962.61L2745.05 1816.98 3085.89 1815.61 3086.48 1961.24C3086.79 2040.16 3043.29 2104.31 2989.3 2104.53Z" stroke="#000000" stroke-width="13.75" stroke-linecap="butt" stroke-linejoin="miter" stroke-miterlimit="8" stroke-opacity="1" fill="#FFFFFF" fill-rule="evenodd" fill-opacity="1"/><path d="M2738.85 1848.49C2745.65 1805.6 2766.74 1778.41 2780.01 1778.15L3050.07 1774.47C3078.48 1774.24 3091.47 1833.59 3091.8 1850.05 3098.08 1909.34 3097.76 1925.39 3101.05 1974.78 3101.38 1991.24 3101.86 2040.43 3031.25 2031.69 2932.09 2023.6 2892.96 2048.1 2799.8 2033.16 2731.27 2037.76 2735.21 1989.28 2734.88 1972.82 2734.29 1900.73 2730.6 1915.74 2738.85 1848.49Z" stroke="#000000" stroke-width="13.75" stroke-linecap="butt" stroke-linejoin="miter" stroke-miterlimit="8" stroke-opacity="1" fill="#00C250" fill-rule="evenodd" fill-opacity="1"/><path d="M2709.78 1620.86C2728.76 1573.59 2732.87 1544.79 2800.54 1512.19 2878.78 1499.06 2959.7 1490.58 3012.01 1507.86 3064.31 1525.15 3097.86 1573.61 3114.37 1615.92 3121.7 1661.51 3111.82 1701.78 3090.88 1746.56 3063.39 1796.44 3056.07 1793.2 3026.13 1813.5L2804.98 1816.08C2764.44 1790.49 2750.37 1782.15 2727.23 1732.96 2713.72 1698.87 2701.97 1682.82 2709.78 1620.86Z" stroke="#000000" stroke-width="13.75" stroke-linecap="butt" stroke-linejoin="miter" stroke-miterlimit="8" stroke-opacity="1" fill="#FFFFFF" fill-rule="evenodd" fill-opacity="1"/><path d="M2960.27 1706.71C2947.14 1734.72 2913.79 1746.79 2885.78 1733.67 2873.18 1727.77 2863.24 1717.39 2857.87 1704.56L2860.26 1703.56C2871.64 1730.78 2902.94 1743.62 2930.16 1732.23 2942.4 1727.12 2952.29 1717.63 2957.92 1705.61Z" stroke="#000000" stroke-width="13.75" stroke-linecap="butt" stroke-linejoin="miter" stroke-miterlimit="8" stroke-opacity="1" fill="#000000" fill-rule="evenodd" fill-opacity="1"/><path d="M2998.15 1666.97C2997.89 1653.7 3010.76 1642.67 3026.91 1642.34 3043.06 1642.02 3056.37 1652.51 3056.63 1665.79 3056.9 1679.07 3044.03 1690.1 3027.88 1690.42 3011.73 1690.75 2998.42 1680.25 2998.15 1666.97Z" stroke="#000000" stroke-width="13.75" stroke-linecap="butt" stroke-linejoin="miter" stroke-miterlimit="8" stroke-opacity="1" fill="#F4B183" fill-rule="evenodd" fill-opacity="1"/><path d="M2768.81 1670.23C2768.51 1655.08 2781.32 1642.53 2797.43 1642.21 2813.54 1641.88 2826.85 1653.9 2827.16 1669.05 2827.46 1684.21 2814.65 1696.76 2798.54 1697.08 2782.43 1697.41 2769.12 1685.39 2768.81 1670.23Z" stroke="#000000" stroke-width="13.75" stroke-linecap="butt" stroke-linejoin="miter" stroke-miterlimit="8" stroke-opacity="1" fill="#F4B183" fill-rule="evenodd" fill-opacity="1"/><path d="M2771.67 1419.08C2813.3 1436.68 2780.67 1456.09 2784.27 1457.39 2731.84 1505.16 2705.19 1530.35 2690.37 1571.58 2675.54 1612.8 2683.46 1647.11 2695.32 1704.76 2713.35 1754.44 2728.07 1783.41 2747.58 1813.37 2759.71 1835.35 2752.31 1834.66 2731.43 1846.02 2685.85 1822.26 2662.61 1749.84 2648.44 1705.57 2638.7 1652.87 2625.73 1615.86 2652.9 1542.89 2693.05 1473.53 2699.14 1470.91 2771.67 1419.08Z" stroke="#000000" stroke-width="13.75" stroke-linecap="butt" stroke-linejoin="miter" stroke-miterlimit="8" stroke-opacity="1" fill="#FFFFFF" fill-rule="evenodd" fill-opacity="1"/><path d="M2794 2149 2861 2149C2877.02 2149 2890 2161.98 2890 2178L2890 2227 2765 2227 2765 2178C2765 2161.98 2777.98 2149 2794 2149Z" stroke="#000000" stroke-width="13.75" stroke-linecap="butt" stroke-linejoin="miter" stroke-miterlimit="8" stroke-opacity="1" fill="#00C250" fill-rule="evenodd" fill-opacity="1"/><rect x="0" y="0" width="125" height="35.0001" stroke="#000000" stroke-width="13.75" stroke-linecap="butt" stroke-linejoin="miter" stroke-miterlimit="8" stroke-opacity="1" fill="#FFFFFF" fill-opacity="1" transform="matrix(1 0 0 -1 2765 2230)"/><path d="M2984 2146 3051 2146C3067.02 2146 3080 2158.98 3080 2175L3080 2224 2955 2224 2955 2175C2955 2158.98 2967.98 2146 2984 2146Z" stroke="#000000" stroke-width="13.75" stroke-linecap="butt" stroke-linejoin="miter" stroke-miterlimit="8" stroke-opacity="1" fill="#00C250" fill-rule="evenodd" fill-opacity="1"/><rect x="0" y="0" width="125" height="35.0001" stroke="#000000" stroke-width="13.75" stroke-linecap="butt" stroke-linejoin="miter" stroke-miterlimit="8" stroke-opacity="1" fill="#FFFFFF" fill-opacity="1" transform="matrix(1 0 0 -1 2955 2227)"/><path d="M2955.2 1257.08C2961.95 1255.07 2966.97 1254.53 2968.21 1254.96 3007 1256.41 3004.06 1260.87 3014.94 1272.82 3027.54 1285.08 3022.2 1282.63 3026.37 1288.69 3026.65 1299.44 3019.92 1299.77 3014.57 1297.42 3010.81 1292.51 3012.47 1295.56 3004.61 1285.27 2990.88 1268.52 2988.4 1271.6 2957.52 1273.76 2952.81 1273.3 2951.61 1273.53 2948.85 1267.36 2948.51 1263.18 2951.64 1261.07 2955.2 1257.08Z" stroke="#000000" stroke-width="13.75" stroke-linecap="butt" stroke-linejoin="miter" stroke-miterlimit="8" stroke-opacity="1" fill="#FFFFFF" fill-rule="evenodd" fill-opacity="1"/><path d="M0 11C-1.90967e-15 4.92487 3.35781 0 7.49989 0 11.642-2.80089e-15 14.9998 4.92487 14.9998 11 14.9998 17.0751 11.642 22 7.49989 22 3.35781 22-2.86451e-15 17.0751 0 11Z" stroke="#000000" stroke-width="13.75" stroke-linecap="butt" stroke-linejoin="miter" stroke-miterlimit="8" stroke-opacity="1" fill="#FFFFFF" fill-rule="evenodd" fill-opacity="1" transform="matrix(-1 0 0 1 3034 1307)"/><path d="M2836.92 1599.19C2840.04 1583.55 2855.25 1573.39 2870.9 1576.51 2886.55 1579.63 2896.71 1594.84 2893.59 1610.49 2890.47 1626.14 2875.25 1636.3 2859.6 1633.18 2843.96 1630.06 2833.8 1614.84 2836.92 1599.19Z" stroke="#000000" stroke-width="13.75" stroke-linecap="butt" stroke-linejoin="miter" stroke-miterlimit="8" stroke-opacity="1" fill="#000000" fill-rule="evenodd" fill-opacity="1"/><path d="M2848.33 1599.63C2850.32 1589.67 2860.01 1583.2 2869.97 1585.18 2879.94 1587.17 2886.4 1596.86 2884.42 1606.82 2882.43 1616.79 2872.74 1623.26 2862.78 1621.27 2852.81 1619.28 2846.35 1609.6 2848.33 1599.63Z" stroke="#000000" stroke-width="13.75" stroke-linecap="butt" stroke-linejoin="miter" stroke-miterlimit="8" stroke-opacity="1" fill="#FFFFFF" fill-rule="evenodd" fill-opacity="1"/><path d="M2928.08 1597.58C2931.2 1581.93 2946.42 1571.77 2962.06 1574.89 2977.71 1578.01 2987.87 1593.23 2984.75 1608.87 2981.63 1624.52 2966.42 1634.68 2950.77 1631.56 2935.12 1628.44 2924.96 1613.23 2928.08 1597.58Z" stroke="#000000" stroke-width="13.75" stroke-linecap="butt" stroke-linejoin="miter" stroke-miterlimit="8" stroke-opacity="1" fill="#000000" fill-rule="evenodd" fill-opacity="1"/><path d="M2934.13 1598.7C2936.12 1588.74 2945.81 1582.27 2955.77 1584.26 2965.74 1586.24 2972.21 1595.93 2970.22 1605.89 2968.23 1615.86 2958.55 1622.33 2948.58 1620.34 2938.62 1618.35 2932.15 1608.67 2934.13 1598.7Z" stroke="#000000" stroke-width="13.75" stroke-linecap="butt" stroke-linejoin="miter" stroke-miterlimit="8" stroke-opacity="1" fill="#FFFFFF" fill-rule="evenodd" fill-opacity="1"/><path d="M2728.47 1724.57 2786.81 1809.69 2734.75 1853.65 2660.61 1781.85Z" stroke="#000000" stroke-width="13.75" stroke-linecap="butt" stroke-linejoin="miter" stroke-miterlimit="8" stroke-opacity="1" fill="#00C250" fill-rule="evenodd" fill-opacity="1"/><path d="M3085.29 1845.96C3038.68 1837.45 3067.63 1810.15 3063.65 1809.64 3106.4 1748.79 3127.91 1716.94 3133.67 1671.38 3139.44 1625.81 3123.51 1592.52 3098.22 1536.25 3068.44 1489.52 3046.76 1463.24 3019.96 1437.04 3002.54 1417.32 3010.27 1416.33 3029.05 1399.95 3081.1 1413.86 3121.4 1482.66 3146 1524.72 3167.99 1576.41 3189.7 1611.32 3178.55 1692.18 3153.3 1772.31 3147.67 1776.38 3085.29 1845.96Z" stroke="#000000" stroke-width="13.75" stroke-linecap="butt" stroke-linejoin="miter" stroke-miterlimit="8" stroke-opacity="1" fill="#FFFFFF" fill-rule="evenodd" fill-opacity="1"/><path d="M3164.5 1801.65 3087.4 1862.89 3035.08 1810.59 3096.31 1733.47Z" stroke="#000000" stroke-width="13.75" stroke-linecap="butt" stroke-linejoin="miter" stroke-miterlimit="8" stroke-opacity="1" fill="#00C250" fill-rule="evenodd" fill-opacity="1"/><path d="M2928.5 1558.5C2928.5 1549.66 2940.81 1542.5 2956 1542.5 2971.19 1542.5 2983.5 1549.66 2983.5 1558.5L2975.5 1558.5C2975.5 1554.08 2966.77 1550.5 2956 1550.5 2945.23 1550.5 2936.5 1554.08 2936.5 1558.5Z" stroke="#000000" stroke-width="4.58333" stroke-linecap="butt" stroke-linejoin="miter" stroke-miterlimit="8" stroke-opacity="1" fill="#000000" fill-rule="evenodd" fill-opacity="1"/><path d="M2841.5 1559C2841.5 1550.44 2853.81 1543.5 2869 1543.5 2884.19 1543.5 2896.5 1550.44 2896.5 1559L2888.75 1559C2888.75 1554.72 2879.91 1551.25 2869 1551.25 2858.09 1551.25 2849.25 1554.72 2849.25 1559Z" stroke="#000000" stroke-width="4.58333" stroke-linecap="butt" stroke-linejoin="miter" stroke-miterlimit="8" stroke-opacity="1" fill="#000000" fill-rule="evenodd" fill-opacity="1"/><path d="M1345.9 2231 1345.1 2231C1321.85 2231 1303 2212.15 1303 2188.9L1303 1943 1388 1943 1388 2188.9C1388 2212.15 1369.15 2231 1345.9 2231Z" stroke="#000000" stroke-width="13.75" stroke-linecap="butt" stroke-linejoin="miter" stroke-miterlimit="8" stroke-opacity="1" fill="#FFFFFF" fill-rule="evenodd" fill-opacity="1"/><path d="M1534.4 2229 1533.6 2229C1510.63 2229 1492 2210.37 1492 2187.4L1492 1940 1576 1940 1576 2187.4C1576 2210.37 1557.37 2229 1534.4 2229Z" stroke="#000000" stroke-width="13.75" stroke-linecap="butt" stroke-linejoin="miter" stroke-miterlimit="8" stroke-opacity="1" fill="#FFFFFF" fill-rule="evenodd" fill-opacity="1"/><path d="M1524.38 2063.35C1453.88 2037.96 1420.98 2044.6 1358.03 2064.02 1296.25 2064.26 1245.91 2000.49 1245.6 1921.57L1245.01 1775.94 1635.08 1774.38 1635.67 1920.01C1635.98 1998.93 1586.16 2063.1 1524.38 2063.35Z" stroke="#000000" stroke-width="13.75" stroke-linecap="butt" stroke-linejoin="miter" stroke-miterlimit="8" stroke-opacity="1" fill="#FFFFFF" fill-rule="evenodd" fill-opacity="1"/><path d="M1216.71 1696.56C1225 1636.88 1251.03 1599.1 1267.44 1598.77L1601.75 1594.49C1636.91 1594.25 1653.18 1676.91 1653.63 1699.82 1661.59 1782.38 1661.24 1804.72 1665.48 1873.47 1665.93 1896.39 1666.67 1964.86 1579.24 1952.48 1456.46 1940.91 1408.1 1974.9 1292.73 1953.82 1207.9 1960.01 1212.64 1892.54 1212.18 1869.63 1211.23 1769.27 1206.71 1790.16 1216.71 1696.56Z" stroke="#000000" stroke-width="13.75" stroke-linecap="butt" stroke-linejoin="miter" stroke-miterlimit="8" stroke-opacity="1" fill="#0070E3" fill-rule="evenodd" fill-opacity="1"/><path d="M1073.56 1131.3C1072.81 1053.33 1178.73 1057.43 1283.76 1057.88L1597.84 1059.5C1695.74 1060.54 1782.98 1053.28 1786.37 1136.57 1788.17 1278.74 1778.1 1417.81 1782.56 1512.54 1785.16 1645.71 1743.29 1625.4 1593.02 1634.61L1286.3 1638.68C1095.34 1628.3 1067.46 1640.42 1067.45 1504.25 1061.86 1367.8 1053.75 1299.17 1073.56 1131.3Z" stroke="#000000" stroke-width="13.75" stroke-linecap="butt" stroke-linejoin="miter" stroke-miterlimit="8" stroke-opacity="1" fill="#0070E3" fill-rule="evenodd" fill-opacity="1"/><path d="M1138.37 1300.46C1145.11 1209.98 1119.81 1200.32 1290.2 1193.19 1433.47 1196.14 1507.57 1192.79 1579.37 1196.43 1659.12 1200.48 1709.21 1180.43 1700.94 1307.85 1704.84 1414.39 1700.89 1429.16 1698.65 1500.41 1701.34 1614.09 1600.96 1604.83 1554.62 1608.13L1271.03 1608.96C1189.38 1603.67 1156.28 1593.43 1139.2 1495.9 1140.82 1423.69 1133.9 1423.14 1138.37 1300.46Z" stroke="#000000" stroke-width="13.75" stroke-linecap="butt" stroke-linejoin="miter" stroke-miterlimit="8" stroke-opacity="1" fill="#FFFFFF" fill-rule="evenodd" fill-opacity="1"/><path d="M1481.16 1391.85C1485.17 1371.73 1504.72 1358.68 1524.84 1362.69 1544.95 1366.69 1558.01 1386.25 1554 1406.36 1549.99 1426.48 1530.43 1439.53 1510.32 1435.52 1490.21 1431.52 1477.15 1411.96 1481.16 1391.85Z" stroke="#000000" stroke-width="13.75" stroke-linecap="butt" stroke-linejoin="miter" stroke-miterlimit="8" stroke-opacity="1" fill="#000000" fill-rule="evenodd" fill-opacity="1"/><path d="M1466.59 1503.89C1453.46 1531.9 1420.12 1543.97 1392.1 1530.85 1379.51 1524.95 1369.56 1514.57 1364.19 1501.74L1366.58 1500.74C1377.96 1527.96 1409.26 1540.8 1436.48 1529.41 1448.72 1524.29 1458.61 1514.8 1464.24 1502.79Z" stroke="#000000" stroke-width="13.75" stroke-linecap="butt" stroke-linejoin="miter" stroke-miterlimit="8" stroke-opacity="1" fill="#000000" fill-rule="evenodd" fill-opacity="1"/><path d="M1292 2151 1358 2151C1374.02 2151 1387 2163.98 1387 2180L1387 2229 1263 2229 1263 2180C1263 2163.98 1275.98 2151 1292 2151Z" stroke="#000000" stroke-width="13.75" stroke-linecap="butt" stroke-linejoin="miter" stroke-miterlimit="8" stroke-opacity="1" fill="#0070E3" fill-rule="evenodd" fill-opacity="1"/><rect x="0" y="0" width="124" height="35.0001" stroke="#000000" stroke-width="13.75" stroke-linecap="butt" stroke-linejoin="miter" stroke-miterlimit="8" stroke-opacity="1" fill="#FFFFFF" fill-opacity="1" transform="matrix(1 0 0 -1 1263 2232)"/><path d="M1515 2153 1582 2153C1598.02 2153 1611 2165.98 1611 2182L1611 2231 1486 2231 1486 2182C1486 2165.98 1498.98 2153 1515 2153Z" stroke="#000000" stroke-width="13.75" stroke-linecap="butt" stroke-linejoin="miter" stroke-miterlimit="8" stroke-opacity="1" fill="#0070E3" fill-rule="evenodd" fill-opacity="1"/><rect x="0" y="0" width="125" height="34" stroke="#000000" stroke-width="13.75" stroke-linecap="butt" stroke-linejoin="miter" stroke-miterlimit="8" stroke-opacity="1" fill="#FFFFFF" fill-opacity="1" transform="matrix(1 0 0 -1 1486 2234)"/><path d="M1288.08 1391.85C1292.09 1371.73 1311.64 1358.68 1331.76 1362.69 1351.87 1366.69 1364.92 1386.25 1360.92 1406.36 1356.91 1426.48 1337.35 1439.53 1317.24 1435.52 1297.12 1431.52 1284.07 1411.96 1288.08 1391.85Z" stroke="#000000" stroke-width="13.75" stroke-linecap="butt" stroke-linejoin="miter" stroke-miterlimit="8" stroke-opacity="1" fill="#000000" fill-rule="evenodd" fill-opacity="1"/><path d="M1375 1415C1375 1398.43 1395.82 1385 1421.5 1385 1447.18 1385 1468 1398.43 1468 1415L1453 1415C1453 1406.72 1438.9 1400 1421.5 1400 1404.1 1400 1390 1406.72 1390 1415Z" stroke="#000000" stroke-width="13.75" stroke-linecap="butt" stroke-linejoin="miter" stroke-miterlimit="8" stroke-opacity="1" fill="#0070C0" fill-rule="evenodd" fill-opacity="1"/><path d="M1453 1397.5C1453 1348.07 1493.07 1308 1542.5 1308 1591.93 1308 1632 1348.07 1632 1397.5 1632 1446.93 1591.93 1487 1542.5 1487 1493.07 1487 1453 1446.93 1453 1397.5ZM1467.57 1397.5C1467.57 1438.88 1501.12 1472.43 1542.5 1472.43 1583.88 1472.43 1617.43 1438.88 1617.43 1397.5 1617.43 1356.12 1583.88 1322.57 1542.5 1322.57 1501.12 1322.57 1467.57 1356.12 1467.57 1397.5Z" stroke="#000000" stroke-width="13.75" stroke-linecap="butt" stroke-linejoin="miter" stroke-miterlimit="8" stroke-opacity="1" fill="#0070C0" fill-rule="evenodd" fill-opacity="1"/><path d="M1212 1397.5C1212 1348.07 1252.07 1308 1301.5 1308 1350.93 1308 1391 1348.07 1391 1397.5 1391 1446.93 1350.93 1487 1301.5 1487 1252.07 1487 1212 1446.93 1212 1397.5ZM1226.57 1397.5C1226.57 1438.88 1260.12 1472.43 1301.5 1472.43 1342.88 1472.43 1376.43 1438.88 1376.43 1397.5 1376.43 1356.12 1342.88 1322.57 1301.5 1322.57 1260.12 1322.57 1226.57 1356.12 1226.57 1397.5Z" stroke="#000000" stroke-width="13.75" stroke-linecap="butt" stroke-linejoin="miter" stroke-miterlimit="8" stroke-opacity="1" fill="#0070C0" fill-rule="evenodd" fill-opacity="1"/><path d="M1515.5 1400C1515.5 1391.44 1522.44 1384.5 1531 1384.5 1539.56 1384.5 1546.5 1391.44 1546.5 1400 1546.5 1408.56 1539.56 1415.5 1531 1415.5 1522.44 1415.5 1515.5 1408.56 1515.5 1400Z" stroke="#000000" stroke-width="4.58333" stroke-linecap="butt" stroke-linejoin="miter" stroke-miterlimit="8" stroke-opacity="1" fill="#FFFFFF" fill-rule="evenodd" fill-opacity="1"/><path d="M1317.5 1401C1317.5 1392.99 1324.22 1386.5 1332.5 1386.5 1340.78 1386.5 1347.5 1392.99 1347.5 1401 1347.5 1409.01 1340.78 1415.5 1332.5 1415.5 1324.22 1415.5 1317.5 1409.01 1317.5 1401Z" stroke="#000000" stroke-width="4.58333" stroke-linecap="butt" stroke-linejoin="miter" stroke-miterlimit="8" stroke-opacity="1" fill="#FFFFFF" fill-rule="evenodd" fill-opacity="1"/><path d="M1456.5 1282.5C1456.5 1266.48 1491.2 1253.5 1534 1253.5 1576.8 1253.5 1611.5 1266.48 1611.5 1282.5L1597 1282.5C1597 1274.49 1568.79 1268 1534 1268 1499.21 1268 1471 1274.49 1471 1282.5Z" stroke="#000000" stroke-width="4.58333" stroke-linecap="butt" stroke-linejoin="miter" stroke-miterlimit="8" stroke-opacity="1" fill="#000000" fill-rule="evenodd" fill-opacity="1"/><path d="M1232.5 1286.5C1232.5 1270.48 1267.2 1257.5 1310 1257.5 1352.8 1257.5 1387.5 1270.48 1387.5 1286.5L1373 1286.5C1373 1278.49 1344.79 1272 1310 1272 1275.21 1272 1247 1278.49 1247 1286.5Z" stroke="#000000" stroke-width="4.58333" stroke-linecap="butt" stroke-linejoin="miter" stroke-miterlimit="8" stroke-opacity="1" fill="#000000" fill-rule="evenodd" fill-opacity="1"/><path d="M1614.17 1850.13C1752.13 1552.08 2256.44 1864.82 1605.33 2237.2 971.906 1835.45 1489.98 1546.09 1614.17 1850.13Z" stroke="#000000" stroke-width="13.75" stroke-linecap="butt" stroke-linejoin="miter" stroke-miterlimit="8" stroke-opacity="1" fill="#FF0000" fill-rule="evenodd" fill-opacity="1"/><path d="M1773.84 1776.57C1784.04 1778.07 1791.31 1780.39 1792.91 1781.65 1847.2 1806.44 1841.58 1810.24 1853 1831.54 1866.75 1854.25 1860.02 1848.03 1863.91 1858.04 1860.76 1871.56 1851.14 1867.98 1844.37 1861.89 1840.68 1853.56 1842.02 1858.33 1834.32 1840.89 1820.45 1811.93 1815.93 1814.3 1771.63 1798.68 1765.13 1795.31 1763.36 1794.89 1761.5 1785.59 1762.39 1780.19 1767.51 1779.43 1773.84 1776.57Z" stroke="#000000" stroke-width="13.75" stroke-linecap="butt" stroke-linejoin="miter" stroke-miterlimit="8" stroke-opacity="1" fill="#FFFFFF" fill-rule="evenodd" fill-opacity="1"/><path d="M1847 1898C1847 1891.37 1852.15 1886 1858.5 1886 1864.85 1886 1870 1891.37 1870 1898 1870 1904.63 1864.85 1910 1858.5 1910 1852.15 1910 1847 1904.63 1847 1898Z" stroke="#000000" stroke-width="13.75" stroke-linecap="butt" stroke-linejoin="miter" stroke-miterlimit="8" stroke-opacity="1" fill="#FFFFFF" fill-rule="evenodd" fill-opacity="1"/><path d="M1742.26 1782.61 1742.26 1782.61C1723.81 1797.12 1707.56 1793 1687.72 1782 1667.88 1770.99 1655.53 1757.65 1623.23 1716.56 1609.23 1687.37 1600.47 1651.18 1617.13 1640.04 1632.03 1632.07 1647.85 1633.57 1667.24 1632.92 1686.96 1638.87 1690.13 1643.86 1697.16 1650.84L1754.55 1729.46C1766.22 1744.31 1760.72 1768.11 1742.26 1782.61Z" stroke="#000000" stroke-width="13.75" stroke-linecap="butt" stroke-linejoin="miter" stroke-miterlimit="8" stroke-opacity="1" fill="#FFFFFF" fill-rule="evenodd" fill-opacity="1"/><path d="M1394.54 1768.48 1394.54 1768.48C1384.29 1789.24 1371.24 1794.95 1343.37 1789.96 1315.5 1784.96 1277.16 1763.13 1227.32 1738.51 1218.82 1728.8 1215.14 1723.83 1212.17 1705.74 1211.26 1691.1 1215.75 1681.3 1219.74 1663.48 1225.74 1649.77 1228.98 1640.24 1244.9 1637.38 1300.36 1643.05 1330.66 1690.17 1380.5 1714.79 1398.51 1723.69 1404.8 1747.73 1394.54 1768.48Z" stroke="#000000" stroke-width="13.75" stroke-linecap="butt" stroke-linejoin="miter" stroke-miterlimit="8" stroke-opacity="1" fill="#FFFFFF" fill-rule="evenodd" fill-opacity="1"/><path d="M2130.4 2223 2129.6 2223C2106.63 2223 2088 2204.37 2088 2181.4L2088 1934 2172 1934 2172 2181.4C2172 2204.37 2153.37 2223 2130.4 2223Z" stroke="#000000" stroke-width="13.75" stroke-linecap="butt" stroke-linejoin="miter" stroke-miterlimit="8" stroke-opacity="1" fill="#FFFFFF" fill-rule="evenodd" fill-opacity="1"/><path d="M2381.4 2226 2380.6 2226C2357.63 2226 2339 2207.37 2339 2184.4L2339 1937 2423 1937 2423 2184.4C2423 2207.37 2404.37 2226 2381.4 2226Z" stroke="#000000" stroke-width="13.75" stroke-linecap="butt" stroke-linejoin="miter" stroke-miterlimit="8" stroke-opacity="1" fill="#FFFFFF" fill-rule="evenodd" fill-opacity="1"/><path d="M2369.11 2035.94C2279.08 2010.63 2237.05 2017.32 2156.62 2036.8 2077.71 2037.11 2013.48 1973.4 2013.16 1894.48L2012.58 1748.85 2510.84 1746.85 2511.42 1892.48C2511.74 1971.4 2448.02 2035.63 2369.11 2035.94Z" stroke="#000000" stroke-width="13.75" stroke-linecap="butt" stroke-linejoin="miter" stroke-miterlimit="8" stroke-opacity="1" fill="#FFFFFF" fill-rule="evenodd" fill-opacity="1"/><path d="M1985.73 1693.69C1996.33 1633.96 2028.85 1596.05 2049.26 1595.65L2464.79 1589.75C2508.5 1589.34 2528.31 1671.93 2528.77 1694.84 2538.26 1777.37 2537.72 1799.71 2542.65 1868.45 2543.11 1891.37 2543.69 1959.84 2435.09 1947.88 2282.54 1936.91 2222.27 1971.13 2078.97 1950.6 1973.51 1957.21 1979.72 1889.71 1979.27 1866.79 1978.57 1766.43 1972.85 1787.34 1985.73 1693.69Z" stroke="#000000" stroke-width="13.75" stroke-linecap="butt" stroke-linejoin="miter" stroke-miterlimit="8" stroke-opacity="1" fill="#FF8A00" fill-rule="evenodd" fill-opacity="1"/><path d="M1823.62 1076.96C1822.72 983.187 1986.04 904.801 2060.61 971.094 2183.91 1043.58 2310.4 1084.08 2449.69 977.396 2559.46 899.713 2682.64 983.046 2686.73 1083.21 2688.89 1254.19 2711.01 1440.38 2601.99 1580.83 2544.11 1661.45 2523.92 1671.11 2452.55 1678.41L2037.38 1679.55C1969.2 1658.05 1967.46 1649.32 1892.39 1573.83 1795.94 1456.9 1799.62 1278.84 1823.62 1076.96Z" stroke="#000000" stroke-width="13.75" stroke-linecap="butt" stroke-linejoin="miter" stroke-miterlimit="8" stroke-opacity="1" fill="#FF8A00" fill-rule="evenodd" fill-opacity="1"/><path d="M1884.56 1244.32C1918.72 1152.12 1981.33 1101.41 2083.28 1119.42 2219.42 1175.46 2256.37 1196.31 2389.31 1127.58 2488.06 1075.2 2584.35 1152.79 2614.18 1235.39 2627.49 1324.37 2609.74 1402.95 2572.05 1490.31 2522.57 1587.6 2509.35 1581.27 2455.39 1620.85L2056.58 1625.48C1983.42 1575.48 1958.03 1559.17 1916.22 1463.13 1891.8 1396.59 1870.58 1365.25 1884.56 1244.32Z" stroke="#000000" stroke-width="13.75" stroke-linecap="butt" stroke-linejoin="miter" stroke-miterlimit="8" stroke-opacity="1" fill="#FFFFFF" fill-rule="evenodd" fill-opacity="1"/><path d="M2033.07 1323.23C2039.29 1292.03 2069.62 1271.79 2100.81 1278 2132 1284.22 2152.25 1314.55 2146.03 1345.74 2139.81 1376.93 2109.49 1397.18 2078.29 1390.96 2047.1 1384.75 2026.86 1354.42 2033.07 1323.23Z" stroke="#000000" stroke-width="13.75" stroke-linecap="butt" stroke-linejoin="miter" stroke-miterlimit="8" stroke-opacity="1" fill="#000000" fill-rule="evenodd" fill-opacity="1"/><path d="M2089.08 1328.68C2091.06 1318.72 2100.75 1312.25 2110.72 1314.23 2120.68 1316.22 2127.15 1325.91 2125.16 1335.87 2123.18 1345.84 2113.49 1352.3 2103.52 1350.32 2093.56 1348.33 2087.09 1338.64 2089.08 1328.68Z" stroke="#000000" stroke-width="13.75" stroke-linecap="butt" stroke-linejoin="miter" stroke-miterlimit="8" stroke-opacity="1" fill="#FFFFFF" fill-rule="evenodd" fill-opacity="1"/><path d="M2352.88 1328.24C2359.09 1297.05 2389.42 1276.8 2420.61 1283.02 2451.81 1289.24 2472.05 1319.56 2465.83 1350.76 2459.62 1381.95 2429.29 1402.2 2398.1 1395.98 2366.91 1389.76 2346.66 1359.44 2352.88 1328.24Z" stroke="#000000" stroke-width="13.75" stroke-linecap="butt" stroke-linejoin="miter" stroke-miterlimit="8" stroke-opacity="1" fill="#000000" fill-rule="evenodd" fill-opacity="1"/><path d="M2408.88 1333.7C2410.87 1323.73 2420.55 1317.26 2430.52 1319.25 2440.48 1321.24 2446.95 1330.92 2444.97 1340.89 2442.98 1350.85 2433.29 1357.32 2423.33 1355.33 2413.36 1353.35 2406.9 1343.66 2408.88 1333.7Z" stroke="#000000" stroke-width="13.75" stroke-linecap="butt" stroke-linejoin="miter" stroke-miterlimit="8" stroke-opacity="1" fill="#FFFFFF" fill-rule="evenodd" fill-opacity="1"/><path d="M2299.59 1441.79C2286.47 1469.81 2253.12 1481.88 2225.11 1468.75 2212.51 1462.85 2202.56 1452.48 2197.19 1439.64L2199.58 1438.64C2210.97 1465.86 2242.26 1478.7 2269.48 1467.32 2281.72 1462.2 2291.62 1452.71 2297.25 1440.7Z" stroke="#000000" stroke-width="13.75" stroke-linecap="butt" stroke-linejoin="miter" stroke-miterlimit="8" stroke-opacity="1" fill="#000000" fill-rule="evenodd" fill-opacity="1"/><path d="M2379.81 1455.35C2379.32 1431.26 2414.15 1411.03 2457.6 1410.15 2501.05 1409.27 2536.66 1428.08 2537.15 1452.17 2537.64 1476.26 2502.81 1496.5 2459.36 1497.38 2415.91 1498.26 2380.3 1479.44 2379.81 1455.35Z" stroke="#000000" stroke-width="13.75" stroke-linecap="butt" stroke-linejoin="miter" stroke-miterlimit="8" stroke-opacity="1" fill="#F4B183" fill-rule="evenodd" fill-opacity="1"/><path d="M1970.68 1460.43C1970.19 1436.34 2005.02 1416.1 2048.47 1415.22 2091.92 1414.35 2127.54 1433.16 2128.02 1457.25 2128.51 1481.34 2093.68 1501.58 2050.23 1502.45 2006.79 1503.33 1971.17 1484.52 1970.68 1460.43Z" stroke="#000000" stroke-width="13.75" stroke-linecap="butt" stroke-linejoin="miter" stroke-miterlimit="8" stroke-opacity="1" fill="#F4B183" fill-rule="evenodd" fill-opacity="1"/><path d="M2264.3 1628.44C2358.56 1424.81 2703.11 1638.47 2258.26 1892.89 1825.5 1618.41 2179.45 1420.71 2264.3 1628.44Z" stroke="#000000" stroke-width="13.75" stroke-linecap="butt" stroke-linejoin="miter" stroke-miterlimit="8" stroke-opacity="1" fill="#FF0000" fill-rule="evenodd" fill-opacity="1"/><path d="M2345.35 1780.95 2345.35 1780.95C2335.89 1759.47 2338.57 1747.91 2359.51 1728.27 2380.44 1708.64 2423.11 1684.21 2470.94 1663.14 2502.7 1656.85 2507.91 1676.29 2514.56 1695.2 2518.57 1711.62 2513.18 1726.57 2508.99 1745.51 2498.32 1763.13 2492.71 1764.96 2484.2 1770.03L2393.77 1806.06C2376.49 1813.68 2354.81 1802.43 2345.35 1780.95Z" stroke="#000000" stroke-width="13.75" stroke-linecap="butt" stroke-linejoin="miter" stroke-miterlimit="8" stroke-opacity="1" fill="#FFFFFF" fill-rule="evenodd" fill-opacity="1"/><path d="M2183.76 1798.48 2183.76 1798.48C2173.51 1819.24 2160.46 1824.95 2132.59 1819.95 2104.72 1814.96 2066.38 1793.13 2016.54 1768.51 2008.04 1758.79 2004.37 1753.83 2001.39 1735.73 2000.48 1721.1 2004.97 1711.3 2008.96 1693.48 2014.96 1679.76 2018.2 1670.23 2034.12 1667.37 2089.59 1673.05 2119.88 1720.17 2169.72 1744.79 2187.73 1753.69 2194.02 1777.72 2183.76 1798.48Z" stroke="#000000" stroke-width="13.75" stroke-linecap="butt" stroke-linejoin="miter" stroke-miterlimit="8" stroke-opacity="1" fill="#FFFFFF" fill-rule="evenodd" fill-opacity="1"/><path d="M2077 2145 2143 2145C2159.02 2145 2172 2157.98 2172 2174L2172 2223 2048 2223 2048 2174C2048 2157.98 2060.98 2145 2077 2145Z" stroke="#000000" stroke-width="13.75" stroke-linecap="butt" stroke-linejoin="miter" stroke-miterlimit="8" stroke-opacity="1" fill="#FF8A00" fill-rule="evenodd" fill-opacity="1"/><rect x="0" y="0" width="124" height="34" stroke="#000000" stroke-width="13.75" stroke-linecap="butt" stroke-linejoin="miter" stroke-miterlimit="8" stroke-opacity="1" fill="#FFFFFF" fill-opacity="1" transform="matrix(1 0 0 -1 2048 2226)"/><path d="M2364 2145 2431 2145C2447.02 2145 2460 2157.98 2460 2174L2460 2223 2335 2223 2335 2174C2335 2157.98 2347.98 2145 2364 2145Z" stroke="#000000" stroke-width="13.75" stroke-linecap="butt" stroke-linejoin="miter" stroke-miterlimit="8" stroke-opacity="1" fill="#FF8A00" fill-rule="evenodd" fill-opacity="1"/><rect x="0" y="0" width="125" height="34" stroke="#000000" stroke-width="13.75" stroke-linecap="butt" stroke-linejoin="miter" stroke-miterlimit="8" stroke-opacity="1" fill="#FFFFFF" fill-opacity="1" transform="matrix(1 0 0 -1 2335 2226)"/><path d="M2356.3 1570.68C2364.01 1569.21 2369.82 1569.06 2371.28 1569.56 2416.53 1573.83 2413.44 1577.97 2426.98 1590.44 2442.54 1603.34 2436.15 1600.55 2441.45 1606.77 2442.56 1617.29 2434.75 1617.11 2428.36 1614.43 2423.62 1609.35 2425.77 1612.45 2415.88 1601.83 2398.66 1584.47 2396 1587.3 2360.23 1587.13 2354.71 1586.34 2353.34 1586.47 2349.67 1580.25 2348.97 1576.14 2352.46 1574.32 2356.3 1570.68Z" stroke="#000000" stroke-width="13.75" stroke-linecap="butt" stroke-linejoin="miter" stroke-miterlimit="8" stroke-opacity="1" fill="#FFFFFF" fill-rule="evenodd" fill-opacity="1"/><path d="M2439 1630C2439 1625.03 2443.03 1621 2448 1621 2452.97 1621 2457 1625.03 2457 1630 2457 1634.97 2452.97 1639 2448 1639 2443.03 1639 2439 1634.97 2439 1630Z" stroke="#000000" stroke-width="13.75" stroke-linecap="butt" stroke-linejoin="miter" stroke-miterlimit="8" stroke-opacity="1" fill="#FFFFFF" fill-rule="evenodd" fill-opacity="1"/><path d="M2338.5 1238.5C2338.5 1222.48 2373.2 1209.5 2416 1209.5 2458.8 1209.5 2493.5 1222.48 2493.5 1238.5L2479 1238.5C2479 1230.49 2450.79 1224 2416 1224 2381.21 1224 2353 1230.49 2353 1238.5Z" stroke="#000000" stroke-width="4.58333" stroke-linecap="butt" stroke-linejoin="miter" stroke-miterlimit="8" stroke-opacity="1" fill="#000000" fill-rule="evenodd" fill-opacity="1"/><path d="M2003.5 1238.5C2003.5 1222.48 2038.2 1209.5 2081 1209.5 2123.8 1209.5 2158.5 1222.48 2158.5 1238.5L2144 1238.5C2144 1230.49 2115.79 1224 2081 1224 2046.21 1224 2018 1230.49 2018 1238.5Z" stroke="#000000" stroke-width="4.58333" stroke-linecap="butt" stroke-linejoin="miter" stroke-miterlimit="8" stroke-opacity="1" fill="#000000" fill-rule="evenodd" fill-opacity="1"/><text fill="#000000" fill-opacity="1" font-family="BM DoHyeon OTF,BM DoHyeon OTF_MSFontService,sans-serif" font-style="normal" font-variant="normal" font-weight="400" font-stretch="normal" font-size="128" text-anchor="start" direction="ltr" writing-mode="lr-tb" unicode-bidi="normal" text-decoration="none" transform="matrix(1 0 0 1 2115.4 2386)">유비<tspan fill="#000000" fill-opacity="1" font-family="BM DoHyeon OTF,BM DoHyeon OTF_MSFontService,sans-serif" font-style="normal" font-variant="normal" font-weight="400" font-stretch="normal" font-size="128" text-anchor="start" direction="ltr" writing-mode="lr-tb" unicode-bidi="normal" text-decoration="none" x="675.952" y="0">유키</tspan><tspan fill="#000000" fill-opacity="1" font-family="BM DoHyeon OTF,BM DoHyeon OTF_MSFontService,sans-serif" font-style="normal" font-variant="normal" font-weight="400" font-stretch="normal" font-size="128" text-anchor="start" direction="ltr" writing-mode="lr-tb" unicode-bidi="normal" text-decoration="none" x="-810.156" y="0">유준</tspan><tspan fill="#000000" fill-opacity="1" font-family="BM DoHyeon OTF,BM DoHyeon OTF_MSFontService,sans-serif" font-style="normal" font-variant="normal" font-weight="400" font-stretch="normal" font-size="128" text-anchor="start" direction="ltr" writing-mode="lr-tb" unicode-bidi="normal" text-decoration="none" x="241.143" y="-1956">유피</tspan></text><path d="M1514.76 537.411C1487.82 479.336 1618.47 489.01 1673 427.088 1681.91 297.5 1830.44 412.833 1884.69 438.178 1938.94 463.523 2020.58 466.034 1998.48 579.158 2090.27 657.946 2138.39 690.596 2005.37 751.183 2023.42 841.151 1987.74 888.417 1873.78 835.031 1798.36 974.737 1747.95 842.903 1693.23 825.92 1638.51 808.937 1452.3 921.199 1545.46 733.132 1352.78 627.803 1541.7 595.487 1514.76 537.411Z" stroke="#000000" stroke-width="13.75" stroke-linecap="butt" stroke-linejoin="miter" stroke-miterlimit="8" stroke-opacity="1" fill="#FFC000" fill-rule="evenodd" fill-opacity="1"/><path d="M1542.72 659.632C1501.16 626.35 1605.05 588.769 1624.73 524.822 1585.04 426.965 1740.63 460.572 1791.42 460.572 1842.22 460.572 1905.87 434.501 1929.51 524.822 2028.35 551.091 2077.06 558.53 1996.58 648.329 2042.76 707.986 2032.31 754.764 1925.55 754.658 1917.75 882.658 1831.66 803.431 1783.51 809.711 1735.35 815.991 1632.54 961.782 1636.61 792.336 1450.69 781.139 1584.29 692.915 1542.72 659.632Z" stroke="#000000" stroke-width="13.75" stroke-linecap="butt" stroke-linejoin="miter" stroke-miterlimit="8" stroke-opacity="1" fill="#FFFF00" fill-rule="evenodd" fill-opacity="1"/><path d="M1586 649.5C1586 581.845 1669.95 527 1773.5 527 1877.05 527 1961 581.845 1961 649.5 1961 717.155 1877.05 772 1773.5 772 1669.95 772 1586 717.155 1586 649.5Z" stroke="#000000" stroke-width="13.75" stroke-linecap="butt" stroke-linejoin="miter" stroke-miterlimit="8" stroke-opacity="1" fill="#FFFFFF" fill-rule="evenodd" fill-opacity="1"/><path d="M1621.92 633.48C1625.87 613.695 1645.1 600.853 1664.89 604.796 1684.67 608.74 1697.52 627.976 1693.57 647.761 1689.63 667.546 1670.39 680.388 1650.61 676.445 1630.82 672.502 1617.98 653.266 1621.92 633.48Z" stroke="#000000" stroke-width="13.75" stroke-linecap="butt" stroke-linejoin="miter" stroke-miterlimit="8" stroke-opacity="1" fill="#000000" fill-rule="evenodd" fill-opacity="1"/><path d="M1653.09 627.682C1655.34 616.395 1663.14 608.436 1670.51 609.906 1677.89 611.375 1682.04 621.717 1679.79 633.004 1677.54 644.291 1669.74 652.25 1662.36 650.78 1654.99 649.311 1650.84 638.969 1653.09 627.682Z" stroke="#000000" stroke-width="13.75" stroke-linecap="butt" stroke-linejoin="miter" stroke-miterlimit="8" stroke-opacity="1" fill="#FFFFFF" fill-rule="evenodd" fill-opacity="1"/><path d="M1852.52 637.098C1856.46 617.312 1875.7 604.47 1895.48 608.414 1915.27 612.357 1928.11 631.593 1924.17 651.378 1920.22 671.163 1900.99 684.006 1881.2 680.062 1861.42 676.119 1848.57 656.883 1852.52 637.098Z" stroke="#000000" stroke-width="13.75" stroke-linecap="butt" stroke-linejoin="miter" stroke-miterlimit="8" stroke-opacity="1" fill="#000000" fill-rule="evenodd" fill-opacity="1"/><path d="M1808.46 703.049C1799.71 721.728 1777.48 729.777 1758.8 721.025 1750.4 717.09 1743.76 710.171 1740.18 701.614L1741.78 700.948C1749.37 719.098 1770.24 727.659 1788.39 720.068 1796.55 716.654 1803.15 710.327 1806.9 702.316Z" stroke="#000000" stroke-width="13.75" stroke-linecap="butt" stroke-linejoin="miter" stroke-miterlimit="8" stroke-opacity="1" fill="#000000" fill-rule="evenodd" fill-opacity="1"/><path d="M1884.51 633.655C1886.76 622.367 1894.56 614.409 1901.94 615.878 1909.31 617.348 1913.47 627.69 1911.22 638.977 1908.97 650.264 1901.17 658.223 1893.79 656.753 1886.42 655.284 1882.26 644.942 1884.51 633.655Z" stroke="#000000" stroke-width="13.75" stroke-linecap="butt" stroke-linejoin="miter" stroke-miterlimit="8" stroke-opacity="1" fill="#FFFFFF" fill-rule="evenodd" fill-opacity="1"/><text fill="#000000" fill-opacity="1" font-family="BM DoHyeon OTF,BM DoHyeon OTF_MSFontService,sans-serif" font-style="normal" font-variant="normal" font-weight="400" font-stretch="normal" font-size="128" text-anchor="start" direction="ltr" writing-mode="lr-tb" unicode-bidi="normal" text-decoration="none" transform="matrix(1 0 0 1 1219.59 498)">유니</text></g></svg>