<svg width="2961" height="1806" xmlns="http://www.w3.org/2000/svg" xmlns:xlink="http://www.w3.org/1999/xlink" overflow="hidden"><defs><clipPath id="clip0"><rect x="215" y="435" width="2961" height="1806"/></clipPath></defs><g clip-path="url(#clip0)" transform="translate(-215 -435)"><path d="M2769.31 921.262C2872.36 698.626 3249.06 932.231 2762.69 1210.39 2289.55 910.294 2676.54 694.149 2769.31 921.262Z" fill="#FF0000" fill-rule="evenodd" fill-opacity="1"/><path d="M2719.46 2218 2718.54 2218C2692.29 2218 2671 2196.71 2671 2170.46L2671 1816 2767 1816 2767 2170.46C2767 2196.71 2745.71 2218 2719.46 2218Z" fill="#FFFFFF" fill-rule="evenodd" fill-opacity="1"/><path d="M2904.94 2211 2904.06 2211C2878.62 2211 2858 2190.38 2858 2164.94L2858 1809 2951 1809 2951 2164.94C2951 2190.38 2930.38 2211 2904.94 2211Z" fill="#FFFFFF" fill-rule="evenodd" fill-opacity="1"/><path d="M2905.37 2052.25C2819.49 2016.81 2779.43 2026.05 2702.78 2053.06 2627.54 2053.37 2566.19 1964.44 2565.75 1854.45L2564.93 1651.47 3039.99 1649.56 3040.81 1852.54C3041.25 1962.54 2980.61 2051.95 2905.37 2052.25Z" fill="#FFFFFF" fill-rule="evenodd" fill-opacity="1"/><path d="M2556.28 1695.38C2565.77 1635.6 2595.16 1597.71 2613.65 1597.34L2990.07 1592.22C3029.66 1591.9 3047.77 1674.62 3048.22 1697.56 3056.98 1780.21 3056.53 1802.58 3061.13 1871.41 3061.58 1894.35 3062.24 1962.91 2963.84 1950.73 2825.62 1939.46 2771.08 1973.61 2641.24 1952.78 2545.71 1959.19 2551.21 1891.62 2550.76 1868.68 2549.93 1768.2 2544.79 1789.12 2556.28 1695.38Z" fill="#00C250" fill-rule="evenodd" fill-opacity="1"/><path d="M2515.76 1378.11C2542.23 1312.23 2547.95 1272.09 2642.26 1226.65 2751.32 1208.35 2864.11 1196.52 2937.02 1220.62 3009.92 1244.72 3056.68 1312.26 3079.68 1371.23 3089.91 1434.77 3076.13 1490.9 3046.94 1553.32 3008.63 1622.84 2998.42 1618.32 2956.69 1646.62L2648.45 1650.21C2591.95 1614.55 2572.34 1602.92 2540.09 1534.35 2521.26 1486.85 2504.88 1464.48 2515.76 1378.11Z" fill="#FFFFFF" fill-rule="evenodd" fill-opacity="1"/><path d="M2864.89 1497.78C2846.6 1536.82 2800.12 1553.64 2761.08 1535.35 2743.52 1527.13 2729.65 1512.66 2722.17 1494.78L2725.5 1493.38C2741.37 1531.32 2784.99 1549.22 2822.93 1533.35 2839.99 1526.21 2853.78 1512.99 2861.63 1496.24Z" fill="#000000" fill-rule="evenodd" fill-opacity="1"/><path d="M2917.7 1442.39C2917.33 1423.88 2935.27 1408.51 2957.78 1408.06 2980.29 1407.6 2998.84 1422.23 2999.21 1440.74 2999.59 1459.25 2981.64 1474.62 2959.14 1475.07 2936.63 1475.53 2918.08 1460.89 2917.7 1442.39Z" fill="#F4B183" fill-rule="evenodd" fill-opacity="1"/><path d="M2598.05 1446.93C2597.62 1425.81 2615.48 1408.32 2637.94 1407.87 2660.39 1407.41 2678.94 1424.17 2679.37 1445.29 2679.8 1466.41 2661.94 1483.9 2639.48 1484.35 2617.03 1484.81 2598.48 1468.05 2598.05 1446.93Z" fill="#F4B183" fill-rule="evenodd" fill-opacity="1"/><path d="M2602.02 1096.87C2660.05 1121.4 2614.58 1148.46 2619.59 1150.27 2546.51 1216.86 2509.37 1251.96 2488.71 1309.42 2468.05 1366.89 2479.08 1414.7 2495.61 1495.05 2520.74 1564.3 2541.26 1604.68 2568.46 1646.44 2585.36 1677.08 2575.04 1676.12 2545.94 1691.94 2482.41 1658.83 2450.03 1557.88 2430.27 1496.19 2416.69 1422.74 2398.62 1371.15 2436.49 1269.44 2492.45 1172.77 2500.94 1169.12 2602.02 1096.87Z" fill="#FFFFFF" fill-rule="evenodd" fill-opacity="1"/><path d="M2633.53 2114 2726.47 2114C2748.86 2114 2767 2132.14 2767 2154.53L2767 2223 2593 2223 2593 2154.53C2593 2132.14 2611.14 2114 2633.53 2114Z" fill="#00C250" fill-rule="evenodd" fill-opacity="1"/><rect x="0" y="0" width="174" height="48.0001" fill="#FFFFFF" fill-opacity="1" transform="matrix(1 0 0 -1 2593 2227)"/><path d="M2898.15 2110 2991.85 2110C3014.02 2110 3032 2127.98 3032 2150.15L3032 2218 2858 2218 2858 2150.15C2858 2127.98 2875.98 2110 2898.15 2110Z" fill="#00C250" fill-rule="evenodd" fill-opacity="1"/><rect x="0" y="0" width="174" height="48.0001" fill="#FFFFFF" fill-opacity="1" transform="matrix(1 0 0 -1 2858 2222)"/><path d="M2857.83 871.071C2867.24 868.267 2874.25 867.523 2875.96 868.115 2930.03 870.143 2925.94 876.351 2941.1 893.02 2958.67 910.107 2951.22 906.685 2957.04 915.138 2957.43 930.116 2948.04 930.578 2940.59 927.303 2935.35 920.45 2937.66 924.703 2926.71 910.362 2907.56 887.016 2904.11 891.319 2861.07 894.32 2854.5 893.676 2852.83 893.997 2848.99 885.397 2848.51 879.573 2852.87 876.642 2857.83 871.071Z" fill="#FFFFFF" fill-rule="evenodd" fill-opacity="1"/><path d="M0 15.0001C-2.54626e-15 6.71579 4.47714 0 9.99997 0 15.5228-3.81943e-15 19.9999 6.71579 19.9999 15.0001 19.9999 23.2845 15.5228 30.0003 9.99997 30.0003 4.47714 30.0003-3.81939e-15 23.2845 0 15.0001Z" fill="#FFFFFF" fill-rule="evenodd" fill-opacity="1" transform="matrix(-1 0 0 1 2967 941)"/><path d="M2692.97 1347.92C2697.32 1326.1 2718.52 1311.95 2740.34 1316.29 2762.15 1320.64 2776.3 1341.85 2771.96 1363.66 2767.61 1385.47 2746.4 1399.63 2724.59 1395.28 2702.78 1390.93 2688.62 1369.73 2692.97 1347.92Z" fill="#000000" fill-rule="evenodd" fill-opacity="1"/><path d="M2708.88 1348.53C2711.65 1334.64 2725.15 1325.62 2739.04 1328.39 2752.93 1331.16 2761.94 1344.66 2759.18 1358.55 2756.41 1372.44 2742.91 1381.45 2729.02 1378.69 2715.13 1375.92 2706.11 1362.41 2708.88 1348.53Z" fill="#FFFFFF" fill-rule="evenodd" fill-opacity="1"/><path d="M2820.04 1345.67C2824.38 1323.85 2845.59 1309.7 2867.4 1314.04 2889.21 1318.39 2903.37 1339.6 2899.02 1361.41 2894.68 1383.22 2873.47 1397.38 2851.66 1393.03 2829.85 1388.68 2815.69 1367.48 2820.04 1345.67Z" fill="#000000" fill-rule="evenodd" fill-opacity="1"/><path d="M2828.47 1347.23C2831.24 1333.34 2844.74 1324.33 2858.63 1327.1 2872.52 1329.86 2881.54 1343.37 2878.77 1357.26 2876 1371.14 2862.5 1380.16 2848.61 1377.39 2834.72 1374.62 2825.71 1361.12 2828.47 1347.23Z" fill="#FFFFFF" fill-rule="evenodd" fill-opacity="1"/><path d="M2541.82 1522.66 2623.13 1641.31 2550.56 1702.58 2447.24 1602.51Z" fill="#00C250" fill-rule="evenodd" fill-opacity="1"/><path d="M3039.15 1691.86C2974.19 1680 3014.54 1641.94 3008.99 1641.23 3068.57 1556.43 3098.56 1512.04 3106.59 1448.53 3114.62 1385.02 3092.43 1338.62 3057.18 1260.18 3015.67 1195.06 2985.46 1158.42 2948.1 1121.9 2923.82 1094.41 2934.59 1093.04 2960.76 1070.21 3033.32 1089.6 3089.48 1185.49 3123.77 1244.11 3154.43 1316.16 3184.69 1364.82 3169.14 1477.52 3133.95 1589.2 3126.1 1594.87 3039.15 1691.86Z" fill="#FFFFFF" fill-rule="evenodd" fill-opacity="1"/><path d="M3149.56 1630.09 3042.09 1715.46 2969.17 1642.56 3054.52 1535.07Z" fill="#00C250" fill-rule="evenodd" fill-opacity="1"/><path d="M2820 1290C2820 1277.85 2837.24 1268 2858.5 1268 2879.76 1268 2897 1277.85 2897 1290L2886 1290C2886 1283.92 2873.69 1279 2858.5 1279 2843.31 1279 2831 1283.92 2831 1290Z" fill="#000000" fill-rule="evenodd" fill-opacity="1"/><path d="M2699 1291.5C2699 1279.63 2716.24 1270 2737.5 1270 2758.76 1270 2776 1279.63 2776 1291.5L2765.25 1291.5C2765.25 1285.56 2752.83 1280.75 2737.5 1280.75 2722.17 1280.75 2709.75 1285.56 2709.75 1291.5Z" fill="#000000" fill-rule="evenodd" fill-opacity="1"/><path d="M614.56 2229 613.44 2229C581.164 2229 555 2202.84 555 2170.56L555 1827 673 1827 673 2170.56C673 2202.84 646.836 2229 614.56 2229Z" fill="#FFFFFF" fill-rule="evenodd" fill-opacity="1"/><path d="M877.049 2226 875.937 2226C843.931 2226 817.986 2200.05 817.986 2168.05L817.986 1824 935 1824 935 2168.05C935 2200.05 909.054 2226 877.049 2226Z" fill="#FFFFFF" fill-rule="evenodd" fill-opacity="1"/><path d="M863.541 1994.86C765.279 1959.47 719.423 1968.73 631.689 1995.79 545.579 1996.13 475.416 1907.25 474.975 1797.25L474.16 1594.27 1017.84 1592.09 1018.66 1795.07C1019.1 1905.07 949.651 1994.51 863.541 1994.86Z" fill="#FFFFFF" fill-rule="evenodd" fill-opacity="1"/><path d="M434.71 1483.63C446.27 1400.45 482.542 1347.78 505.426 1347.33L971.384 1341.36C1020.4 1341.03 1043.07 1456.24 1043.7 1488.17 1054.79 1603.24 1054.31 1634.38 1060.21 1730.21 1060.84 1762.14 1061.87 1857.58 940.013 1840.33 768.876 1824.21 701.471 1871.58 540.666 1842.19 422.439 1850.82 429.036 1756.78 428.402 1724.85 427.076 1584.97 420.775 1614.08 434.71 1483.63Z" fill="#0070E3" fill-rule="evenodd" fill-opacity="1"/><path d="M235.188 695.765C234.147 587.091 381.769 592.805 528.171 593.428L965.939 595.69C1102.38 597.136 1223.99 587.017 1228.71 703.107 1231.22 901.263 1217.18 1095.1 1223.4 1227.14 1227.02 1412.75 1168.67 1384.44 959.211 1397.28L531.701 1402.95C265.551 1388.49 226.68 1405.37 226.676 1215.58 218.887 1025.4 207.583 929.739 235.188 695.765Z" fill="#0070E3" fill-rule="evenodd" fill-opacity="1"/><path d="M325.519 931.538C334.918 805.431 299.655 791.957 537.147 782.027 736.836 786.133 840.112 781.466 940.191 786.546 1051.35 792.189 1121.17 764.243 1109.64 941.838 1115.08 1090.33 1109.57 1110.92 1106.44 1210.23 1110.19 1368.67 970.284 1355.77 905.695 1360.37L510.432 1361.53C396.623 1354.16 350.492 1339.89 326.683 1203.94 328.943 1103.3 319.288 1102.52 325.519 931.538Z" fill="#FFFFFF" fill-rule="evenodd" fill-opacity="1"/><path d="M803.303 1058.91C808.891 1030.88 836.147 1012.68 864.182 1018.27 892.217 1023.86 910.414 1051.11 904.826 1079.15 899.239 1107.18 871.982 1125.38 843.948 1119.79 815.913 1114.2 797.716 1086.95 803.303 1058.91Z" fill="#000000" fill-rule="evenodd" fill-opacity="1"/><path d="M782.995 1215.08C764.703 1254.12 718.222 1270.95 679.177 1252.66 661.621 1244.43 647.753 1229.97 640.273 1212.08L643.603 1210.69C659.47 1248.63 703.089 1266.52 741.028 1250.65 758.087 1243.52 771.881 1230.29 779.726 1213.55Z" fill="#000000" fill-rule="evenodd" fill-opacity="1"/><path d="M539.526 2117 632.474 2117C654.856 2117 673 2135.14 673 2157.53L673 2226 499 2226 499 2157.53C499 2135.14 517.144 2117 539.526 2117Z" fill="#0070E3" fill-rule="evenodd" fill-opacity="1"/><rect x="0" y="0" width="174" height="47.9998" fill="#FFFFFF" fill-opacity="1" transform="matrix(1 0 0 -1 499 2230)"/><path d="M850.526 2120 943.474 2120C965.856 2120 984 2138.14 984 2160.53L984 2229 810 2229 810 2160.53C810 2138.14 828.144 2120 850.526 2120Z" fill="#0070E3" fill-rule="evenodd" fill-opacity="1"/><rect x="0" y="0" width="174" height="48.0001" fill="#FFFFFF" fill-opacity="1" transform="matrix(1 0 0 -1 810 2233)"/><path d="M534.185 1058.91C539.772 1030.88 567.029 1012.68 595.064 1018.27 623.098 1023.86 641.295 1051.11 635.708 1079.15 630.12 1107.18 602.864 1125.38 574.829 1119.79 546.794 1114.2 528.597 1086.95 534.185 1058.91Z" fill="#000000" fill-rule="evenodd" fill-opacity="1"/><path d="M656 1092C656 1068.8 684.878 1050 720.5 1050 756.122 1050 785 1068.8 785 1092L764 1092C764 1080.4 744.524 1071 720.5 1071 696.476 1071 677 1080.4 677 1092Z" fill="#0070C0" fill-rule="evenodd" fill-opacity="1"/><path d="M764 1066.5C764 997.74 819.741 942 888.5 942 957.26 942 1013 997.74 1013 1066.5 1013 1135.26 957.26 1191 888.5 1191 819.741 1191 764 1135.26 764 1066.5ZM784.264 1066.5C784.264 1124.07 830.932 1170.74 888.5 1170.74 946.068 1170.74 992.736 1124.07 992.736 1066.5 992.736 1008.93 946.068 962.264 888.5 962.264 830.932 962.264 784.264 1008.93 784.264 1066.5Z" fill="#0070C0" fill-rule="evenodd" fill-opacity="1"/><path d="M428 1066.5C428 997.74 483.74 942 552.5 942 621.259 942 677 997.74 677 1066.5 677 1135.26 621.259 1191 552.5 1191 483.74 1191 428 1135.26 428 1066.5ZM448.264 1066.5C448.264 1124.07 494.932 1170.74 552.5 1170.74 610.068 1170.74 656.736 1124.07 656.736 1066.5 656.736 1008.93 610.068 962.264 552.5 962.264 494.932 962.264 448.264 1008.93 448.264 1066.5Z" fill="#0070C0" fill-rule="evenodd" fill-opacity="1"/><path d="M850 1070.5C850 1058.63 859.626 1049 871.5 1049 883.374 1049 893 1058.63 893 1070.5 893 1082.37 883.374 1092 871.5 1092 859.626 1092 850 1082.37 850 1070.5Z" fill="#FFFFFF" fill-rule="evenodd" fill-opacity="1"/><path d="M575 1071C575 1059.4 584.178 1050 595.5 1050 606.822 1050 616 1059.4 616 1071 616 1082.6 606.822 1092 595.5 1092 584.178 1092 575 1082.6 575 1071Z" fill="#FFFFFF" fill-rule="evenodd" fill-opacity="1"/><path d="M768 905.5C768 883.132 816.353 865 876 865 935.647 865 984 883.132 984 905.5L963.75 905.5C963.75 894.316 924.463 885.25 876 885.25 827.537 885.25 788.25 894.316 788.25 905.5Z" fill="#000000" fill-rule="evenodd" fill-opacity="1"/><path d="M455 911.5C455 889.133 503.577 871 563.5 871 623.423 871 672 889.133 672 911.5L651.75 911.5C651.75 900.316 612.239 891.25 563.5 891.25 514.761 891.25 475.25 900.316 475.25 911.5Z" fill="#000000" fill-rule="evenodd" fill-opacity="1"/><path d="M988.702 1697.68C1180.99 1282.25 1883.9 1718.15 976.368 2237.17 93.5026 1677.21 815.602 1273.9 988.702 1697.68Z" fill="#FF0000" fill-rule="evenodd" fill-opacity="1"/><path d="M1211.25 1595.15C1225.46 1597.24 1235.6 1600.47 1237.82 1602.22 1313.49 1636.78 1305.67 1642.07 1321.57 1671.77 1340.74 1703.41 1331.36 1694.75 1336.78 1708.7 1332.4 1727.54 1318.99 1722.55 1309.55 1714.07 1304.41 1702.45 1306.27 1709.1 1295.54 1684.79 1276.21 1644.43 1269.91 1647.73 1208.16 1625.96 1199.1 1621.27 1196.64 1620.68 1194.04 1607.71 1195.29 1600.19 1202.42 1599.13 1211.25 1595.15Z" fill="#FFFFFF" fill-rule="evenodd" fill-opacity="1"/><path d="M1313 1764.5C1313 1755.39 1320.39 1748 1329.5 1748 1338.61 1748 1346 1755.39 1346 1764.5 1346 1773.61 1338.61 1781 1329.5 1781 1320.39 1781 1313 1773.61 1313 1764.5Z" fill="#FFFFFF" fill-rule="evenodd" fill-opacity="1"/><path d="M1167.23 1603.56 1167.23 1603.56C1141.51 1623.78 1118.86 1618.05 1091.21 1602.71 1063.55 1587.36 1046.34 1568.78 1001.32 1511.51 981.816 1470.82 969.597 1420.37 992.821 1404.84 1013.59 1393.74 1035.64 1395.83 1062.67 1394.93 1090.15 1403.22 1094.57 1410.17 1104.37 1419.9L1184.35 1529.49C1200.62 1550.18 1192.95 1583.35 1167.23 1603.56Z" fill="#FFFFFF" fill-rule="evenodd" fill-opacity="1"/><path d="M682.579 1583.87 682.579 1583.87C668.287 1612.8 650.098 1620.77 611.252 1613.8 572.407 1606.84 518.973 1576.41 449.505 1542.1 437.656 1528.56 432.531 1521.63 428.382 1496.42 427.114 1476.02 433.369 1462.36 438.934 1437.52 447.296 1418.4 451.808 1405.12 474.001 1401.14 551.312 1409.04 593.542 1474.72 663.009 1509.04 688.109 1521.44 696.871 1554.94 682.579 1583.87Z" fill="#FFFFFF" fill-rule="evenodd" fill-opacity="1"/><path d="M1708.56 2217 1707.44 2217C1675.16 2217 1649 2190.84 1649 2158.56L1649 1815 1767 1815 1767 2158.56C1767 2190.84 1740.84 2217 1708.56 2217Z" fill="#FFFFFF" fill-rule="evenodd" fill-opacity="1"/><path d="M2058.06 2222 2056.94 2222C2024.94 2222 1999 2196.06 1999 2164.06L1999 1819 2116 1819 2116 2164.06C2116 2196.06 2090.06 2222 2058.06 2222Z" fill="#FFFFFF" fill-rule="evenodd" fill-opacity="1"/><path d="M2040.93 1956.66C1915.46 1921.38 1856.87 1930.7 1744.77 1957.85 1634.78 1958.29 1545.25 1869.48 1544.81 1759.49L1544 1556.51 2238.48 1553.72 2239.3 1756.7C2239.74 1866.7 2150.93 1956.22 2040.93 1956.66Z" fill="#FFFFFF" fill-rule="evenodd" fill-opacity="1"/><path d="M1506.58 1479.63C1521.35 1396.38 1566.68 1343.54 1595.13 1342.97L2174.3 1334.75C2235.22 1334.18 2262.84 1449.3 2263.47 1481.23 2276.7 1596.25 2275.95 1627.4 2282.82 1723.21 2283.46 1755.15 2284.27 1850.59 2132.9 1833.92 1920.27 1818.63 1836.26 1866.33 1636.54 1837.71 1489.55 1846.92 1498.21 1752.83 1497.57 1720.9 1496.6 1581.01 1488.63 1610.16 1506.58 1479.63Z" fill="#FF8A00" fill-rule="evenodd" fill-opacity="1"/><path d="M1280.62 620.016C1279.37 489.32 1507.01 380.065 1610.95 472.465 1782.8 573.501 1959.1 629.942 2153.25 481.249 2306.24 372.973 2477.93 489.124 2483.64 628.738 2486.66 867.046 2517.47 1126.55 2365.53 1322.32 2284.85 1434.69 2256.72 1448.15 2157.24 1458.32L1578.56 1459.91C1483.54 1429.95 1481.11 1417.78 1376.49 1312.56 1242.05 1149.59 1247.17 901.404 1280.62 620.016Z" fill="#FF8A00" fill-rule="evenodd" fill-opacity="1"/><path d="M1365.56 853.295C1413.17 724.784 1500.45 654.096 1642.55 679.2 1832.3 757.314 1883.8 786.377 2069.09 690.573 2206.73 617.569 2340.94 725.712 2382.52 840.845 2401.07 964.869 2376.33 1074.4 2323.79 1196.16 2254.83 1331.76 2236.41 1322.93 2161.19 1378.09L1605.33 1384.56C1503.36 1314.86 1467.97 1292.13 1409.69 1158.27 1375.66 1065.53 1346.08 1021.85 1365.56 853.295Z" fill="#FFFFFF" fill-rule="evenodd" fill-opacity="1"/><path d="M1572.57 963.27C1581.23 919.793 1623.5 891.573 1666.98 900.238 1710.45 908.903 1738.67 951.173 1730.01 994.65 1721.34 1038.13 1679.07 1066.35 1635.6 1057.68 1592.12 1049.02 1563.9 1006.75 1572.57 963.27Z" fill="#000000" fill-rule="evenodd" fill-opacity="1"/><path d="M1650.63 970.87C1653.39 956.982 1666.9 947.967 1680.79 950.735 1694.67 953.503 1703.69 967.006 1700.92 980.895 1698.15 994.783 1684.65 1003.8 1670.76 1001.03 1656.87 998.262 1647.86 984.759 1650.63 970.87Z" fill="#FFFFFF" fill-rule="evenodd" fill-opacity="1"/><path d="M2018.31 970.262C2026.98 926.785 2069.24 898.565 2112.72 907.23 2156.2 915.896 2184.42 958.165 2175.75 1001.64 2167.09 1045.12 2124.82 1073.34 2081.34 1064.67 2037.86 1056.01 2009.64 1013.74 2018.31 970.262Z" fill="#000000" fill-rule="evenodd" fill-opacity="1"/><path d="M2096.37 977.863C2099.14 963.974 2112.64 954.96 2126.53 957.728 2140.42 960.496 2149.43 973.999 2146.67 987.887 2143.9 1001.78 2130.4 1010.79 2116.51 1008.02 2102.62 1005.25 2093.6 991.752 2096.37 977.863Z" fill="#FFFFFF" fill-rule="evenodd" fill-opacity="1"/><path d="M1944.04 1128.53C1925.75 1167.58 1879.27 1184.4 1840.22 1166.11 1822.67 1157.88 1808.8 1143.42 1801.32 1125.53L1804.65 1124.14C1820.52 1162.08 1864.13 1179.97 1902.07 1164.11 1919.13 1156.97 1932.93 1143.74 1940.77 1127Z" fill="#000000" fill-rule="evenodd" fill-opacity="1"/><path d="M2055.85 1147.43C2055.17 1113.85 2103.71 1085.64 2164.27 1084.42 2224.83 1083.2 2274.48 1109.42 2275.15 1143 2275.83 1176.57 2227.29 1204.78 2166.73 1206 2106.17 1207.23 2056.53 1181 2055.85 1147.43Z" fill="#F4B183" fill-rule="evenodd" fill-opacity="1"/><path d="M1485.6 1154.5C1484.93 1120.93 1533.47 1092.72 1594.03 1091.5 1654.59 1090.27 1704.23 1116.5 1704.91 1150.07 1705.59 1183.65 1657.04 1211.86 1596.49 1213.08 1535.93 1214.3 1486.28 1188.08 1485.6 1154.5Z" fill="#F4B183" fill-rule="evenodd" fill-opacity="1"/><path d="M1894.85 1388.68C2026.23 1104.86 2506.46 1402.66 1886.43 1757.27 1283.25 1374.7 1776.59 1099.15 1894.85 1388.68Z" fill="#FF0000" fill-rule="evenodd" fill-opacity="1"/><path d="M2007.82 1601.25 2007.82 1601.25C1994.63 1571.31 1998.38 1555.19 2027.55 1527.83 2056.73 1500.46 2116.21 1466.41 2182.87 1437.05 2227.13 1428.27 2234.4 1455.38 2243.67 1481.73 2249.26 1504.62 2241.75 1525.45 2235.9 1551.85 2221.04 1576.41 2213.21 1578.96 2201.35 1586.03L2075.31 1636.25C2051.22 1646.86 2021 1631.19 2007.82 1601.25Z" fill="#FFFFFF" fill-rule="evenodd" fill-opacity="1"/><path d="M1782.6 1625.68 1782.6 1625.68C1768.31 1654.61 1750.12 1662.57 1711.28 1655.61 1672.43 1648.65 1619 1618.22 1549.53 1583.9 1537.68 1570.37 1532.55 1563.44 1528.4 1538.23 1527.14 1517.83 1533.39 1504.17 1538.96 1479.33 1547.32 1460.21 1551.83 1446.93 1574.02 1442.94 1651.34 1450.85 1693.56 1516.53 1763.03 1550.85 1788.13 1563.25 1796.89 1596.75 1782.6 1625.68Z" fill="#FFFFFF" fill-rule="evenodd" fill-opacity="1"/><path d="M1633.15 2109 1726.85 2109C1749.02 2109 1767 2126.98 1767 2149.15L1767 2217 1593 2217 1593 2149.15C1593 2126.98 1610.98 2109 1633.15 2109Z" fill="#FF8A00" fill-rule="evenodd" fill-opacity="1"/><rect x="0" y="0" width="174" height="48.0001" fill="#FFFFFF" fill-opacity="1" transform="matrix(1 0 0 -1 1593 2222)"/><path d="M2034.15 2109 2127.85 2109C2150.02 2109 2168 2126.98 2168 2149.15L2168 2217 1994 2217 1994 2149.15C1994 2126.98 2011.98 2109 2034.15 2109Z" fill="#FF8A00" fill-rule="evenodd" fill-opacity="1"/><rect x="0" y="0" width="174" height="48.0001" fill="#FFFFFF" fill-opacity="1" transform="matrix(1 0 0 -1 1994 2222)"/><path d="M2023.08 1308.17C2033.83 1306.12 2041.93 1305.91 2043.97 1306.62 2107.04 1312.57 2102.73 1318.33 2121.59 1335.71 2143.29 1353.69 2134.37 1349.8 2141.76 1358.48 2143.32 1373.13 2132.42 1372.89 2123.51 1369.15 2116.91 1362.07 2119.91 1366.4 2106.12 1351.59 2082.13 1327.39 2078.42 1331.34 2028.56 1331.11 2020.87 1330 2018.96 1330.19 2013.85 1321.51 2012.86 1315.79 2017.73 1313.25 2023.08 1308.17Z" fill="#FFFFFF" fill-rule="evenodd" fill-opacity="1"/><path d="M2139 1391.5C2139 1384.6 2144.6 1379 2151.5 1379 2158.4 1379 2164 1384.6 2164 1391.5 2164 1398.4 2158.4 1404 2151.5 1404 2144.6 1404 2139 1398.4 2139 1391.5Z" fill="#FFFFFF" fill-rule="evenodd" fill-opacity="1"/><path d="M1997 844.5C1997 822.133 2045.35 804 2105 804 2164.65 804 2213 822.133 2213 844.5L2192.75 844.5C2192.75 833.316 2153.46 824.25 2105 824.25 2056.54 824.25 2017.25 833.316 2017.25 844.5Z" fill="#000000" fill-rule="evenodd" fill-opacity="1"/><path d="M1530 844.5C1530 822.133 1578.35 804 1638 804 1697.65 804 1746 822.133 1746 844.5L1725.75 844.5C1725.75 833.316 1686.46 824.25 1638 824.25 1589.54 824.25 1550.25 833.316 1550.25 844.5Z" fill="#000000" fill-rule="evenodd" fill-opacity="1"/></g></svg>