<svg width="1233" height="1668" xmlns="http://www.w3.org/2000/svg" xmlns:xlink="http://www.w3.org/1999/xlink" overflow="hidden"><defs><clipPath id="clip0"><rect x="206" y="582" width="1233" height="1668"/></clipPath></defs><g clip-path="url(#clip0)" transform="translate(-206 -582)"><path d="M614.56 2229 613.44 2229C581.164 2229 555 2202.84 555 2170.56L555 1827 673 1827 673 2170.56C673 2202.84 646.836 2229 614.56 2229Z" stroke="#000000" stroke-width="13.75" stroke-linecap="butt" stroke-linejoin="miter" stroke-miterlimit="8" stroke-opacity="1" fill="#FFFFFF" fill-rule="evenodd" fill-opacity="1"/><path d="M877.049 2226 875.937 2226C843.931 2226 817.986 2200.05 817.986 2168.05L817.986 1824 935 1824 935 2168.05C935 2200.05 909.054 2226 877.049 2226Z" stroke="#000000" stroke-width="13.75" stroke-linecap="butt" stroke-linejoin="miter" stroke-miterlimit="8" stroke-opacity="1" fill="#FFFFFF" fill-rule="evenodd" fill-opacity="1"/><path d="M863.541 1994.86C765.279 1959.47 719.423 1968.73 631.689 1995.79 545.579 1996.13 475.416 1907.25 474.975 1797.25L474.16 1594.27 1017.84 1592.09 1018.66 1795.07C1019.1 1905.07 949.651 1994.51 863.541 1994.86Z" stroke="#000000" stroke-width="13.75" stroke-linecap="butt" stroke-linejoin="miter" stroke-miterlimit="8" stroke-opacity="1" fill="#FFFFFF" fill-rule="evenodd" fill-opacity="1"/><path d="M434.71 1483.63C446.27 1400.45 482.542 1347.78 505.426 1347.33L971.384 1341.36C1020.4 1341.03 1043.07 1456.24 1043.7 1488.17 1054.79 1603.24 1054.31 1634.38 1060.21 1730.21 1060.84 1762.14 1061.87 1857.58 940.013 1840.33 768.876 1824.21 701.471 1871.58 540.666 1842.19 422.439 1850.82 429.036 1756.78 428.402 1724.85 427.076 1584.97 420.775 1614.08 434.71 1483.63Z" stroke="#000000" stroke-width="13.75" stroke-linecap="butt" stroke-linejoin="miter" stroke-miterlimit="8" stroke-opacity="1" fill="#0070E3" fill-rule="evenodd" fill-opacity="1"/><path d="M235.188 695.765C234.147 587.091 381.769 592.805 528.171 593.428L965.939 595.69C1102.38 597.136 1223.99 587.017 1228.71 703.107 1231.22 901.263 1217.18 1095.1 1223.4 1227.14 1227.02 1412.75 1168.67 1384.44 959.211 1397.28L531.701 1402.95C265.551 1388.49 226.68 1405.37 226.676 1215.58 218.887 1025.4 207.583 929.739 235.188 695.765Z" stroke="#000000" stroke-width="13.75" stroke-linecap="butt" stroke-linejoin="miter" stroke-miterlimit="8" stroke-opacity="1" fill="#0070E3" fill-rule="evenodd" fill-opacity="1"/><path d="M325.519 931.538C334.918 805.431 299.655 791.957 537.147 782.027 736.836 786.133 840.112 781.466 940.191 786.546 1051.35 792.189 1121.17 764.243 1109.64 941.838 1115.08 1090.33 1109.57 1110.92 1106.44 1210.23 1110.19 1368.67 970.284 1355.77 905.695 1360.37L510.432 1361.53C396.623 1354.16 350.492 1339.89 326.683 1203.94 328.943 1103.3 319.288 1102.52 325.519 931.538Z" stroke="#000000" stroke-width="13.75" stroke-linecap="butt" stroke-linejoin="miter" stroke-miterlimit="8" stroke-opacity="1" fill="#FFFFFF" fill-rule="evenodd" fill-opacity="1"/><path d="M803.303 1058.91C808.891 1030.88 836.147 1012.68 864.182 1018.27 892.217 1023.86 910.414 1051.11 904.826 1079.15 899.239 1107.18 871.982 1125.38 843.948 1119.79 815.913 1114.2 797.716 1086.95 803.303 1058.91Z" stroke="#000000" stroke-width="13.75" stroke-linecap="butt" stroke-linejoin="miter" stroke-miterlimit="8" stroke-opacity="1" fill="#000000" fill-rule="evenodd" fill-opacity="1"/><path d="M782.995 1215.08C764.703 1254.12 718.222 1270.95 679.177 1252.66 661.621 1244.43 647.753 1229.97 640.273 1212.08L643.603 1210.69C659.47 1248.63 703.089 1266.52 741.028 1250.65 758.087 1243.52 771.881 1230.29 779.726 1213.55Z" stroke="#000000" stroke-width="13.75" stroke-linecap="butt" stroke-linejoin="miter" stroke-miterlimit="8" stroke-opacity="1" fill="#000000" fill-rule="evenodd" fill-opacity="1"/><path d="M539.526 2117 632.474 2117C654.856 2117 673 2135.14 673 2157.53L673 2226 499 2226 499 2157.53C499 2135.14 517.144 2117 539.526 2117Z" stroke="#000000" stroke-width="13.75" stroke-linecap="butt" stroke-linejoin="miter" stroke-miterlimit="8" stroke-opacity="1" fill="#0070E3" fill-rule="evenodd" fill-opacity="1"/><rect x="0" y="0" width="174" height="47.9998" stroke="#000000" stroke-width="13.75" stroke-linecap="butt" stroke-linejoin="miter" stroke-miterlimit="8" stroke-opacity="1" fill="#FFFFFF" fill-opacity="1" transform="matrix(1 0 0 -1 499 2230)"/><path d="M850.526 2120 943.474 2120C965.856 2120 984 2138.14 984 2160.53L984 2229 810 2229 810 2160.53C810 2138.14 828.144 2120 850.526 2120Z" stroke="#000000" stroke-width="13.75" stroke-linecap="butt" stroke-linejoin="miter" stroke-miterlimit="8" stroke-opacity="1" fill="#0070E3" fill-rule="evenodd" fill-opacity="1"/><rect x="0" y="0" width="174" height="48.0001" stroke="#000000" stroke-width="13.75" stroke-linecap="butt" stroke-linejoin="miter" stroke-miterlimit="8" stroke-opacity="1" fill="#FFFFFF" fill-opacity="1" transform="matrix(1 0 0 -1 810 2233)"/><path d="M534.185 1058.91C539.772 1030.88 567.029 1012.68 595.064 1018.27 623.098 1023.86 641.295 1051.11 635.708 1079.15 630.12 1107.18 602.864 1125.38 574.829 1119.79 546.794 1114.2 528.597 1086.95 534.185 1058.91Z" stroke="#000000" stroke-width="13.75" stroke-linecap="butt" stroke-linejoin="miter" stroke-miterlimit="8" stroke-opacity="1" fill="#000000" fill-rule="evenodd" fill-opacity="1"/><path d="M656 1092C656 1068.8 684.878 1050 720.5 1050 756.122 1050 785 1068.8 785 1092L764 1092C764 1080.4 744.524 1071 720.5 1071 696.476 1071 677 1080.4 677 1092Z" stroke="#000000" stroke-width="13.75" stroke-linecap="butt" stroke-linejoin="miter" stroke-miterlimit="8" stroke-opacity="1" fill="#0070C0" fill-rule="evenodd" fill-opacity="1"/><path d="M764 1066.5C764 997.74 819.741 942 888.5 942 957.26 942 1013 997.74 1013 1066.5 1013 1135.26 957.26 1191 888.5 1191 819.741 1191 764 1135.26 764 1066.5ZM784.264 1066.5C784.264 1124.07 830.932 1170.74 888.5 1170.74 946.068 1170.74 992.736 1124.07 992.736 1066.5 992.736 1008.93 946.068 962.264 888.5 962.264 830.932 962.264 784.264 1008.93 784.264 1066.5Z" stroke="#000000" stroke-width="13.75" stroke-linecap="butt" stroke-linejoin="miter" stroke-miterlimit="8" stroke-opacity="1" fill="#0070C0" fill-rule="evenodd" fill-opacity="1"/><path d="M428 1066.5C428 997.74 483.74 942 552.5 942 621.259 942 677 997.74 677 1066.5 677 1135.26 621.259 1191 552.5 1191 483.74 1191 428 1135.26 428 1066.5ZM448.264 1066.5C448.264 1124.07 494.932 1170.74 552.5 1170.74 610.068 1170.74 656.736 1124.07 656.736 1066.5 656.736 1008.93 610.068 962.264 552.5 962.264 494.932 962.264 448.264 1008.93 448.264 1066.5Z" stroke="#000000" stroke-width="13.75" stroke-linecap="butt" stroke-linejoin="miter" stroke-miterlimit="8" stroke-opacity="1" fill="#0070C0" fill-rule="evenodd" fill-opacity="1"/><path d="M850.5 1071C850.5 1059.13 860.126 1049.5 872 1049.5 883.874 1049.5 893.5 1059.13 893.5 1071 893.5 1082.87 883.874 1092.5 872 1092.5 860.126 1092.5 850.5 1082.87 850.5 1071Z" stroke="#000000" stroke-width="4.58333" stroke-linecap="butt" stroke-linejoin="miter" stroke-miterlimit="8" stroke-opacity="1" fill="#FFFFFF" fill-rule="evenodd" fill-opacity="1"/><path d="M575.5 1071.5C575.5 1059.9 584.678 1050.5 596 1050.5 607.322 1050.5 616.5 1059.9 616.5 1071.5 616.5 1083.1 607.322 1092.5 596 1092.5 584.678 1092.5 575.5 1083.1 575.5 1071.5Z" stroke="#000000" stroke-width="4.58333" stroke-linecap="butt" stroke-linejoin="miter" stroke-miterlimit="8" stroke-opacity="1" fill="#FFFFFF" fill-rule="evenodd" fill-opacity="1"/><path d="M768.5 906C768.5 883.633 816.853 865.5 876.5 865.5 936.147 865.5 984.5 883.633 984.5 906L964.25 906C964.25 894.816 924.963 885.75 876.5 885.75 828.037 885.75 788.75 894.816 788.75 906Z" stroke="#000000" stroke-width="4.58333" stroke-linecap="butt" stroke-linejoin="miter" stroke-miterlimit="8" stroke-opacity="1" fill="#000000" fill-rule="evenodd" fill-opacity="1"/><path d="M455.5 912C455.5 889.632 504.077 871.5 564 871.5 623.923 871.5 672.5 889.632 672.5 912L652.25 912C652.25 900.816 612.739 891.75 564 891.75 515.261 891.75 475.75 900.816 475.75 912Z" stroke="#000000" stroke-width="4.58333" stroke-linecap="butt" stroke-linejoin="miter" stroke-miterlimit="8" stroke-opacity="1" fill="#000000" fill-rule="evenodd" fill-opacity="1"/><path d="M988.702 1697.68C1180.99 1282.25 1883.9 1718.15 976.368 2237.17 93.5026 1677.21 815.602 1273.9 988.702 1697.68Z" stroke="#000000" stroke-width="13.75" stroke-linecap="butt" stroke-linejoin="miter" stroke-miterlimit="8" stroke-opacity="1" fill="#FF0000" fill-rule="evenodd" fill-opacity="1"/><path d="M1211.25 1595.15C1225.46 1597.24 1235.6 1600.47 1237.82 1602.22 1313.49 1636.78 1305.67 1642.07 1321.57 1671.77 1340.74 1703.41 1331.36 1694.75 1336.78 1708.7 1332.4 1727.54 1318.99 1722.55 1309.55 1714.07 1304.41 1702.45 1306.27 1709.1 1295.54 1684.79 1276.21 1644.43 1269.91 1647.73 1208.16 1625.96 1199.1 1621.27 1196.64 1620.68 1194.04 1607.71 1195.29 1600.19 1202.42 1599.13 1211.25 1595.15Z" stroke="#000000" stroke-width="13.75" stroke-linecap="butt" stroke-linejoin="miter" stroke-miterlimit="8" stroke-opacity="1" fill="#FFFFFF" fill-rule="evenodd" fill-opacity="1"/><path d="M1313 1764.5C1313 1755.39 1320.39 1748 1329.5 1748 1338.61 1748 1346 1755.39 1346 1764.5 1346 1773.61 1338.61 1781 1329.5 1781 1320.39 1781 1313 1773.61 1313 1764.5Z" stroke="#000000" stroke-width="13.75" stroke-linecap="butt" stroke-linejoin="miter" stroke-miterlimit="8" stroke-opacity="1" fill="#FFFFFF" fill-rule="evenodd" fill-opacity="1"/><path d="M1167.23 1603.56 1167.23 1603.56C1141.51 1623.78 1118.86 1618.05 1091.21 1602.71 1063.55 1587.36 1046.34 1568.78 1001.32 1511.51 981.816 1470.82 969.597 1420.37 992.821 1404.84 1013.59 1393.74 1035.64 1395.83 1062.67 1394.93 1090.15 1403.22 1094.57 1410.17 1104.37 1419.9L1184.35 1529.49C1200.62 1550.18 1192.95 1583.35 1167.23 1603.56Z" stroke="#000000" stroke-width="13.75" stroke-linecap="butt" stroke-linejoin="miter" stroke-miterlimit="8" stroke-opacity="1" fill="#FFFFFF" fill-rule="evenodd" fill-opacity="1"/><path d="M682.579 1583.87 682.579 1583.87C668.287 1612.8 650.098 1620.77 611.252 1613.8 572.407 1606.84 518.973 1576.41 449.505 1542.1 437.656 1528.56 432.531 1521.63 428.382 1496.42 427.114 1476.02 433.369 1462.36 438.934 1437.52 447.296 1418.4 451.808 1405.12 474.001 1401.14 551.312 1409.04 593.542 1474.72 663.009 1509.04 688.109 1521.44 696.871 1554.94 682.579 1583.87Z" stroke="#000000" stroke-width="13.75" stroke-linecap="butt" stroke-linejoin="miter" stroke-miterlimit="8" stroke-opacity="1" fill="#FFFFFF" fill-rule="evenodd" fill-opacity="1"/></g></svg>