<svg width="784" height="1421" xmlns="http://www.w3.org/2000/svg" xmlns:xlink="http://www.w3.org/1999/xlink" overflow="hidden"><defs><clipPath id="clip0"><rect x="2401" y="815" width="784" height="1421"/></clipPath></defs><g clip-path="url(#clip0)" transform="translate(-2401 -815)"><path d="M2769.31 921.262C2872.36 698.626 3249.06 932.231 2762.69 1210.39 2289.55 910.294 2676.54 694.149 2769.31 921.262Z" stroke="#000000" stroke-width="13.75" stroke-linecap="butt" stroke-linejoin="miter" stroke-miterlimit="8" stroke-opacity="1" fill="#FF0000" fill-rule="evenodd" fill-opacity="1"/><path d="M2719.46 2218 2718.54 2218C2692.29 2218 2671 2196.71 2671 2170.46L2671 1816 2767 1816 2767 2170.46C2767 2196.71 2745.71 2218 2719.46 2218Z" stroke="#000000" stroke-width="13.75" stroke-linecap="butt" stroke-linejoin="miter" stroke-miterlimit="8" stroke-opacity="1" fill="#FFFFFF" fill-rule="evenodd" fill-opacity="1"/><path d="M2904.94 2211 2904.06 2211C2878.62 2211 2858 2190.38 2858 2164.94L2858 1809 2951 1809 2951 2164.94C2951 2190.38 2930.38 2211 2904.94 2211Z" stroke="#000000" stroke-width="13.75" stroke-linecap="butt" stroke-linejoin="miter" stroke-miterlimit="8" stroke-opacity="1" fill="#FFFFFF" fill-rule="evenodd" fill-opacity="1"/><path d="M2905.37 2052.25C2819.49 2016.81 2779.43 2026.05 2702.78 2053.06 2627.54 2053.37 2566.19 1964.44 2565.75 1854.45L2564.93 1651.47 3039.99 1649.56 3040.81 1852.54C3041.25 1962.54 2980.61 2051.95 2905.37 2052.25Z" stroke="#000000" stroke-width="13.75" stroke-linecap="butt" stroke-linejoin="miter" stroke-miterlimit="8" stroke-opacity="1" fill="#FFFFFF" fill-rule="evenodd" fill-opacity="1"/><path d="M2556.28 1695.38C2565.77 1635.6 2595.16 1597.71 2613.65 1597.34L2990.07 1592.22C3029.66 1591.9 3047.77 1674.62 3048.22 1697.56 3056.98 1780.21 3056.53 1802.58 3061.13 1871.41 3061.58 1894.35 3062.24 1962.91 2963.84 1950.73 2825.62 1939.46 2771.08 1973.61 2641.24 1952.78 2545.71 1959.19 2551.21 1891.62 2550.76 1868.68 2549.93 1768.2 2544.79 1789.12 2556.28 1695.38Z" stroke="#000000" stroke-width="13.75" stroke-linecap="butt" stroke-linejoin="miter" stroke-miterlimit="8" stroke-opacity="1" fill="#00C250" fill-rule="evenodd" fill-opacity="1"/><path d="M2515.76 1378.11C2542.23 1312.23 2547.95 1272.09 2642.26 1226.65 2751.32 1208.35 2864.11 1196.52 2937.02 1220.62 3009.92 1244.72 3056.68 1312.26 3079.68 1371.23 3089.91 1434.77 3076.13 1490.9 3046.94 1553.32 3008.63 1622.84 2998.42 1618.32 2956.69 1646.62L2648.45 1650.21C2591.95 1614.55 2572.34 1602.92 2540.09 1534.35 2521.26 1486.85 2504.88 1464.48 2515.76 1378.11Z" stroke="#000000" stroke-width="13.75" stroke-linecap="butt" stroke-linejoin="miter" stroke-miterlimit="8" stroke-opacity="1" fill="#FFFFFF" fill-rule="evenodd" fill-opacity="1"/><path d="M2864.89 1497.78C2846.6 1536.82 2800.12 1553.64 2761.08 1535.35 2743.52 1527.13 2729.65 1512.66 2722.17 1494.78L2725.5 1493.38C2741.37 1531.32 2784.99 1549.22 2822.93 1533.35 2839.99 1526.21 2853.78 1512.99 2861.63 1496.24Z" stroke="#000000" stroke-width="13.75" stroke-linecap="butt" stroke-linejoin="miter" stroke-miterlimit="8" stroke-opacity="1" fill="#000000" fill-rule="evenodd" fill-opacity="1"/><path d="M2917.7 1442.39C2917.33 1423.88 2935.27 1408.51 2957.78 1408.06 2980.29 1407.6 2998.84 1422.23 2999.21 1440.74 2999.59 1459.25 2981.64 1474.62 2959.14 1475.07 2936.63 1475.53 2918.08 1460.89 2917.7 1442.39Z" stroke="#000000" stroke-width="13.75" stroke-linecap="butt" stroke-linejoin="miter" stroke-miterlimit="8" stroke-opacity="1" fill="#F4B183" fill-rule="evenodd" fill-opacity="1"/><path d="M2598.05 1446.93C2597.62 1425.81 2615.48 1408.32 2637.94 1407.87 2660.39 1407.41 2678.94 1424.17 2679.37 1445.29 2679.8 1466.41 2661.94 1483.9 2639.48 1484.35 2617.03 1484.81 2598.48 1468.05 2598.05 1446.93Z" stroke="#000000" stroke-width="13.75" stroke-linecap="butt" stroke-linejoin="miter" stroke-miterlimit="8" stroke-opacity="1" fill="#F4B183" fill-rule="evenodd" fill-opacity="1"/><path d="M2602.02 1096.87C2660.05 1121.4 2614.58 1148.46 2619.59 1150.27 2546.51 1216.86 2509.37 1251.96 2488.71 1309.42 2468.05 1366.89 2479.08 1414.7 2495.61 1495.05 2520.74 1564.3 2541.26 1604.68 2568.46 1646.44 2585.36 1677.08 2575.04 1676.12 2545.94 1691.94 2482.41 1658.83 2450.03 1557.88 2430.27 1496.19 2416.69 1422.74 2398.62 1371.15 2436.49 1269.44 2492.45 1172.77 2500.94 1169.12 2602.02 1096.87Z" stroke="#000000" stroke-width="13.75" stroke-linecap="butt" stroke-linejoin="miter" stroke-miterlimit="8" stroke-opacity="1" fill="#FFFFFF" fill-rule="evenodd" fill-opacity="1"/><path d="M2633.53 2114 2726.47 2114C2748.86 2114 2767 2132.14 2767 2154.53L2767 2223 2593 2223 2593 2154.53C2593 2132.14 2611.14 2114 2633.53 2114Z" stroke="#000000" stroke-width="13.75" stroke-linecap="butt" stroke-linejoin="miter" stroke-miterlimit="8" stroke-opacity="1" fill="#00C250" fill-rule="evenodd" fill-opacity="1"/><rect x="0" y="0" width="174" height="48.0001" stroke="#000000" stroke-width="13.75" stroke-linecap="butt" stroke-linejoin="miter" stroke-miterlimit="8" stroke-opacity="1" fill="#FFFFFF" fill-opacity="1" transform="matrix(1 0 0 -1 2593 2227)"/><path d="M2898.15 2110 2991.85 2110C3014.02 2110 3032 2127.98 3032 2150.15L3032 2218 2858 2218 2858 2150.15C2858 2127.98 2875.98 2110 2898.15 2110Z" stroke="#000000" stroke-width="13.75" stroke-linecap="butt" stroke-linejoin="miter" stroke-miterlimit="8" stroke-opacity="1" fill="#00C250" fill-rule="evenodd" fill-opacity="1"/><rect x="0" y="0" width="174" height="48.0001" stroke="#000000" stroke-width="13.75" stroke-linecap="butt" stroke-linejoin="miter" stroke-miterlimit="8" stroke-opacity="1" fill="#FFFFFF" fill-opacity="1" transform="matrix(1 0 0 -1 2858 2222)"/><path d="M2857.83 871.071C2867.24 868.267 2874.25 867.523 2875.96 868.115 2930.03 870.143 2925.94 876.351 2941.1 893.02 2958.67 910.107 2951.22 906.685 2957.04 915.138 2957.43 930.116 2948.04 930.578 2940.59 927.303 2935.35 920.45 2937.66 924.703 2926.71 910.362 2907.56 887.016 2904.11 891.319 2861.07 894.32 2854.5 893.676 2852.83 893.997 2848.99 885.397 2848.51 879.573 2852.87 876.642 2857.83 871.071Z" stroke="#000000" stroke-width="13.75" stroke-linecap="butt" stroke-linejoin="miter" stroke-miterlimit="8" stroke-opacity="1" fill="#FFFFFF" fill-rule="evenodd" fill-opacity="1"/><path d="M0 15.0001C-2.54626e-15 6.71579 4.47714 0 9.99997 0 15.5228-3.81943e-15 19.9999 6.71579 19.9999 15.0001 19.9999 23.2845 15.5228 30.0003 9.99997 30.0003 4.47714 30.0003-3.81939e-15 23.2845 0 15.0001Z" stroke="#000000" stroke-width="13.75" stroke-linecap="butt" stroke-linejoin="miter" stroke-miterlimit="8" stroke-opacity="1" fill="#FFFFFF" fill-rule="evenodd" fill-opacity="1" transform="matrix(-1 0 0 1 2967 941)"/><path d="M2692.97 1347.92C2697.32 1326.1 2718.52 1311.95 2740.34 1316.29 2762.15 1320.64 2776.3 1341.85 2771.96 1363.66 2767.61 1385.47 2746.4 1399.63 2724.59 1395.28 2702.78 1390.93 2688.62 1369.73 2692.97 1347.92Z" stroke="#000000" stroke-width="13.75" stroke-linecap="butt" stroke-linejoin="miter" stroke-miterlimit="8" stroke-opacity="1" fill="#000000" fill-rule="evenodd" fill-opacity="1"/><path d="M2708.88 1348.53C2711.65 1334.64 2725.15 1325.62 2739.04 1328.39 2752.93 1331.16 2761.94 1344.66 2759.18 1358.55 2756.41 1372.44 2742.91 1381.45 2729.02 1378.69 2715.13 1375.92 2706.11 1362.41 2708.88 1348.53Z" stroke="#000000" stroke-width="13.75" stroke-linecap="butt" stroke-linejoin="miter" stroke-miterlimit="8" stroke-opacity="1" fill="#FFFFFF" fill-rule="evenodd" fill-opacity="1"/><path d="M2820.04 1345.67C2824.38 1323.85 2845.59 1309.7 2867.4 1314.04 2889.21 1318.39 2903.37 1339.6 2899.02 1361.41 2894.68 1383.22 2873.47 1397.38 2851.66 1393.03 2829.85 1388.68 2815.69 1367.48 2820.04 1345.67Z" stroke="#000000" stroke-width="13.75" stroke-linecap="butt" stroke-linejoin="miter" stroke-miterlimit="8" stroke-opacity="1" fill="#000000" fill-rule="evenodd" fill-opacity="1"/><path d="M2828.47 1347.23C2831.24 1333.34 2844.74 1324.33 2858.63 1327.1 2872.52 1329.86 2881.54 1343.37 2878.77 1357.26 2876 1371.14 2862.5 1380.16 2848.61 1377.39 2834.72 1374.62 2825.71 1361.12 2828.47 1347.23Z" stroke="#000000" stroke-width="13.75" stroke-linecap="butt" stroke-linejoin="miter" stroke-miterlimit="8" stroke-opacity="1" fill="#FFFFFF" fill-rule="evenodd" fill-opacity="1"/><path d="M2541.82 1522.66 2623.13 1641.31 2550.56 1702.58 2447.24 1602.51Z" stroke="#000000" stroke-width="13.75" stroke-linecap="butt" stroke-linejoin="miter" stroke-miterlimit="8" stroke-opacity="1" fill="#00C250" fill-rule="evenodd" fill-opacity="1"/><path d="M3039.15 1691.86C2974.19 1680 3014.54 1641.94 3008.99 1641.23 3068.57 1556.43 3098.56 1512.04 3106.59 1448.53 3114.62 1385.02 3092.43 1338.62 3057.18 1260.18 3015.67 1195.06 2985.46 1158.42 2948.1 1121.9 2923.82 1094.41 2934.59 1093.04 2960.76 1070.21 3033.32 1089.6 3089.48 1185.49 3123.77 1244.11 3154.43 1316.16 3184.69 1364.82 3169.14 1477.52 3133.95 1589.2 3126.1 1594.87 3039.15 1691.86Z" stroke="#000000" stroke-width="13.75" stroke-linecap="butt" stroke-linejoin="miter" stroke-miterlimit="8" stroke-opacity="1" fill="#FFFFFF" fill-rule="evenodd" fill-opacity="1"/><path d="M3149.56 1630.09 3042.09 1715.46 2969.17 1642.56 3054.52 1535.07Z" stroke="#000000" stroke-width="13.75" stroke-linecap="butt" stroke-linejoin="miter" stroke-miterlimit="8" stroke-opacity="1" fill="#00C250" fill-rule="evenodd" fill-opacity="1"/><path d="M2820.5 1290.5C2820.5 1278.35 2837.74 1268.5 2859 1268.5 2880.26 1268.5 2897.5 1278.35 2897.5 1290.5L2886.5 1290.5C2886.5 1284.42 2874.19 1279.5 2859 1279.5 2843.81 1279.5 2831.5 1284.42 2831.5 1290.5Z" stroke="#000000" stroke-width="4.58333" stroke-linecap="butt" stroke-linejoin="miter" stroke-miterlimit="8" stroke-opacity="1" fill="#000000" fill-rule="evenodd" fill-opacity="1"/><path d="M2699.5 1292C2699.5 1280.13 2716.74 1270.5 2738 1270.5 2759.26 1270.5 2776.5 1280.13 2776.5 1292L2765.75 1292C2765.75 1286.06 2753.33 1281.25 2738 1281.25 2722.67 1281.25 2710.25 1286.06 2710.25 1292Z" stroke="#000000" stroke-width="4.58333" stroke-linecap="butt" stroke-linejoin="miter" stroke-miterlimit="8" stroke-opacity="1" fill="#000000" fill-rule="evenodd" fill-opacity="1"/></g></svg>