<svg width="1572" height="1568" xmlns="http://www.w3.org/2000/svg" xmlns:xlink="http://www.w3.org/1999/xlink" overflow="hidden"><defs><clipPath id="clip0"><rect x="2030" y="407" width="1572" height="1568"/></clipPath></defs><g clip-path="url(#clip0)" transform="translate(-2030 -407)"><path d="M2816 408 3499.7 408C3554.54 408 3599 452.458 3599 507.3L3599 1191 2816 1191Z" fill="#F7E222" fill-rule="evenodd" fill-opacity="1"/><path d="M2032 1191 2032 507.3C2032 452.458 2076.46 408 2131.3 408L2816 408 2816 1191Z" fill="#84F3C3" fill-rule="evenodd" fill-opacity="1"/><path d="M3599 1191 3599 1874.7C3599 1929.54 3554.54 1974 3499.7 1974L2816 1974 2816 1191Z" fill="#38A3EC" fill-rule="evenodd" fill-opacity="1"/><path d="M2816 1974 2131.3 1974C2076.46 1974 2032 1929.54 2032 1874.7L2032 1191 2816 1191Z" fill="#EA2802" fill-rule="evenodd" fill-opacity="1"/></g></svg>