<svg width="4912" height="1458" xmlns="http://www.w3.org/2000/svg" xmlns:xlink="http://www.w3.org/1999/xlink" overflow="hidden"><defs><clipPath id="clip0"><rect x="-256" y="508" width="4912" height="1458"/></clipPath><linearGradient x1="1638.58" y1="1197.37" x2="2131.29" y2="1197.37" gradientUnits="userSpaceOnUse" spreadMethod="reflect" id="fill1"><stop offset="0" stop-color="#FF9200" stop-opacity="1"/><stop offset="0.32" stop-color="#FF7349" stop-opacity="1"/><stop offset="0.68" stop-color="#FF532F" stop-opacity="1"/><stop offset="1" stop-color="#FC466B" stop-opacity="1"/></linearGradient></defs><g clip-path="url(#clip0)" transform="translate(256 -508)"><rect x="-254" y="511" width="4908" height="1453" fill="#FFFFFF" fill-opacity="1"/><path d="M1644.98 1200.47 1755.06 1200.47 1755.06 1216.47 1730.74 1216.47 1730.74 1246.42 1712.82 1246.42 1712.82 1216.47 1687.22 1216.47 1687.22 1246.42 1669.3 1246.42 1669.3 1216.47 1644.98 1216.47ZM1795.04 1184.47 1795.04 1229.02 1819.1 1229.02 1819.1 1184.47ZM2049.2 1143.13C2041.91 1143.13 2035.89 1148.89 2035.89 1156.06L2035.89 1215.7C2035.89 1222.74 2041.91 1228.5 2049.2 1228.5 2056.63 1228.5 2062.51 1222.74 2062.51 1215.7L2062.51 1156.06C2062.51 1148.89 2056.63 1143.13 2049.2 1143.13ZM1679.16 1143.13C1671.99 1143.13 1668.15 1148.63 1668.15 1154.9 1668.15 1161.18 1671.99 1166.68 1679.16 1166.68L1720.89 1166.68C1728.05 1166.68 1731.89 1161.18 1731.89 1154.9 1731.89 1148.63 1728.05 1143.13 1720.89 1143.13ZM1675.57 1125.98 1724.47 1125.98C1738.55 1125.98 1749.94 1137.37 1749.94 1150.94L1749.94 1158.87C1749.94 1172.44 1738.55 1183.83 1724.47 1183.83L1675.57 1183.83C1661.49 1183.83 1650.1 1172.44 1650.1 1158.87L1650.1 1150.94C1650.1 1137.37 1661.49 1125.98 1675.57 1125.98ZM2049.2 1125.34C2066.61 1125.34 2080.82 1138.9 2080.82 1156.06L2080.82 1167.96 2102.07 1167.96 2102.07 1125.34 2120.11 1125.34 2120.11 1246.42 2102.07 1246.42 2102.07 1184.73 2080.82 1184.73 2080.82 1215.7C2080.82 1232.86 2066.61 1246.42 2049.2 1246.42 2031.79 1246.42 2017.71 1232.86 2017.71 1215.7L2017.71 1156.06C2017.71 1138.9 2031.79 1125.34 2049.2 1125.34ZM1982.73 1125.34 1999.37 1125.34 1999.37 1246.42 1982.73 1246.42ZM1954.7 1125.34 1971.34 1125.34 1971.34 1246.42 1954.7 1246.42 1954.7 1188.31 1937.54 1188.31 1929.35 1245.66 1910.15 1245.66 1917.96 1189.21 1891.98 1189.21 1891.98 1171.93 1920.39 1171.93 1924.49 1143.13 1891.34 1143.13 1891.34 1125.98 1944.07 1125.98 1944.07 1143.13 1939.98 1171.54 1954.7 1171.54ZM1855.71 1125.34 1873.76 1125.34 1873.76 1247.32 1855.71 1247.32ZM1777.12 1125.34 1795.04 1125.34 1795.04 1164.89 1819.1 1164.89 1819.1 1125.34 1837.15 1125.34 1837.15 1246.42 1777.12 1246.42Z" fill="url(#fill1)" fill-rule="evenodd"/><text fill="#000000" fill-opacity="0" font-family="Arial,Arial_MSFontService,sans-serif" font-size="121.984" direction="ltr" writing-mode="lr-tb" x="1644.98" y="1232.07">유비케어</text><text fill="#3B3838" fill-opacity="1" font-family="BM DoHyeon OTF,BM DoHyeon OTF_MSFontService,sans-serif" font-style="normal" font-variant="normal" font-weight="400" font-stretch="normal" font-size="128" text-anchor="start" direction="ltr" writing-mode="lr-tb" unicode-bidi="normal" text-decoration="none" transform="matrix(1 0 0 1 2179.78 1223)">기술블로그<tspan fill="#404040" fill-opacity="1" font-family="Malgun Gothic,Malgun Gothic_MSFontService,sans-serif" font-style="normal" font-variant="normal" font-weight="400" font-stretch="normal" font-size="73" text-anchor="start" direction="ltr" writing-mode="lr-tb" unicode-bidi="normal" text-decoration="none" x="-367.123" y="121">세상이</tspan><tspan fill="#404040" fill-opacity="1" font-family="Malgun Gothic,Malgun Gothic_MSFontService,sans-serif" font-style="normal" font-variant="normal" font-weight="400" font-stretch="normal" font-size="73" text-anchor="start" direction="ltr" writing-mode="lr-tb" unicode-bidi="normal" text-decoration="none" x="-126.498" y="121">꿈꾸던</tspan><tspan fill="#404040" fill-opacity="1" font-family="Malgun Gothic,Malgun Gothic_MSFontService,sans-serif" font-style="normal" font-variant="normal" font-weight="400" font-stretch="normal" font-size="73" text-anchor="start" direction="ltr" writing-mode="lr-tb" unicode-bidi="normal" text-decoration="none" x="114.127" y="121">헬스케어</tspan><tspan fill="#3B3838" fill-opacity="1" font-family="Apple SD Gothic Neo,Apple SD Gothic Neo_MSFontService,sans-serif" font-style="normal" font-variant="normal" font-weight="700" font-stretch="normal" font-size="83" text-anchor="start" direction="ltr" writing-mode="lr-tb" unicode-bidi="normal" text-decoration="none" x="-190.388" y="-162">U B T E C H</tspan></text></g></svg>