<svg width="4912" height="1458" xmlns="http://www.w3.org/2000/svg" xmlns:xlink="http://www.w3.org/1999/xlink" overflow="hidden"><defs><clipPath id="clip0"><rect x="-256" y="508" width="4912" height="1458"/></clipPath><linearGradient x1="1615.8" y1="1245.73" x2="2108.51" y2="1245.73" gradientUnits="userSpaceOnUse" spreadMethod="reflect" id="fill1"><stop offset="0" stop-color="#FF9200" stop-opacity="1"/><stop offset="0.32" stop-color="#FF7349" stop-opacity="1"/><stop offset="0.68" stop-color="#FF532F" stop-opacity="1"/><stop offset="1" stop-color="#FC466B" stop-opacity="1"/></linearGradient></defs><g clip-path="url(#clip0)" transform="translate(256 -508)"><rect x="-254" y="511" width="4908" height="1453" fill="#FFFFFF" fill-opacity="1"/><path d="M1622.2 1248.83 1732.28 1248.83 1732.28 1264.83 1707.96 1264.83 1707.96 1294.78 1690.04 1294.78 1690.04 1264.83 1664.44 1264.83 1664.44 1294.78 1646.52 1294.78 1646.52 1264.83 1622.2 1264.83ZM1772.26 1232.83 1772.26 1277.37 1796.33 1277.37 1796.33 1232.83ZM2026.42 1191.49C2019.13 1191.49 2013.11 1197.25 2013.11 1204.41L2013.11 1264.06C2013.11 1271.1 2019.13 1276.86 2026.42 1276.86 2033.85 1276.86 2039.74 1271.1 2039.74 1264.06L2039.74 1204.41C2039.74 1197.25 2033.85 1191.49 2026.42 1191.49ZM1656.38 1191.49C1649.21 1191.49 1645.37 1196.99 1645.37 1203.26 1645.37 1209.53 1649.21 1215.04 1656.38 1215.04L1698.11 1215.04C1705.28 1215.04 1709.12 1209.53 1709.12 1203.26 1709.12 1196.99 1705.28 1191.49 1698.11 1191.49ZM1652.8 1174.33 1701.69 1174.33C1715.77 1174.33 1727.16 1185.73 1727.16 1199.29L1727.16 1207.23C1727.16 1220.8 1715.77 1232.19 1701.69 1232.19L1652.8 1232.19C1638.72 1232.19 1627.32 1220.8 1627.32 1207.23L1627.32 1199.29C1627.32 1185.73 1638.72 1174.33 1652.8 1174.33ZM2026.42 1173.69C2043.83 1173.69 2058.04 1187.26 2058.04 1204.41L2058.04 1216.32 2079.29 1216.32 2079.29 1173.69 2097.34 1173.69 2097.34 1294.78 2079.29 1294.78 2079.29 1233.09 2058.04 1233.09 2058.04 1264.06C2058.04 1281.21 2043.83 1294.78 2026.42 1294.78 2009.02 1294.78 1994.94 1281.21 1994.94 1264.06L1994.94 1204.41C1994.94 1187.26 2009.02 1173.69 2026.42 1173.69ZM1959.95 1173.69 1976.59 1173.69 1976.59 1294.78 1959.95 1294.78ZM1931.92 1173.69 1948.56 1173.69 1948.56 1294.78 1931.92 1294.78 1931.92 1236.67 1914.77 1236.67 1906.57 1294.01 1887.37 1294.01 1895.18 1237.57 1869.2 1237.57 1869.2 1220.29 1897.61 1220.29 1901.71 1191.49 1868.56 1191.49 1868.56 1174.33 1921.29 1174.33 1921.29 1191.49 1917.2 1219.9 1931.92 1219.9ZM1832.93 1173.69 1850.98 1173.69 1850.98 1295.68 1832.93 1295.68ZM1754.34 1173.69 1772.26 1173.69 1772.26 1213.25 1796.33 1213.25 1796.33 1173.69 1814.37 1173.69 1814.37 1294.78 1754.34 1294.78Z" fill="url(#fill1)" fill-rule="evenodd"/><text fill="#000000" fill-opacity="0" font-family="Arial,Arial_MSFontService,sans-serif" font-size="121.984" direction="ltr" writing-mode="lr-tb" x="1622.2" y="1280.43">유비케어</text><text fill="#3B3838" fill-opacity="1" font-family="BM DoHyeon OTF,BM DoHyeon OTF_MSFontService,sans-serif" font-style="normal" font-variant="normal" font-weight="400" font-stretch="normal" font-size="128" text-anchor="start" direction="ltr" writing-mode="lr-tb" unicode-bidi="normal" text-decoration="none" transform="matrix(1 0 0 1 2165.44 1272)">기술블로그<tspan fill="#404040" fill-opacity="1" font-family="Malgun Gothic,Malgun Gothic_MSFontService,sans-serif" font-style="normal" font-variant="normal" font-weight="400" font-stretch="normal" font-size="73" text-anchor="start" direction="ltr" writing-mode="lr-tb" unicode-bidi="normal" text-decoration="none" x="-352.792" y="128">세상이</tspan><tspan fill="#404040" fill-opacity="1" font-family="Malgun Gothic,Malgun Gothic_MSFontService,sans-serif" font-style="normal" font-variant="normal" font-weight="400" font-stretch="normal" font-size="73" text-anchor="start" direction="ltr" writing-mode="lr-tb" unicode-bidi="normal" text-decoration="none" x="-112.167" y="128">꿈꾸던</tspan><tspan fill="#404040" fill-opacity="1" font-family="Malgun Gothic,Malgun Gothic_MSFontService,sans-serif" font-style="normal" font-variant="normal" font-weight="400" font-stretch="normal" font-size="73" text-anchor="start" direction="ltr" writing-mode="lr-tb" unicode-bidi="normal" text-decoration="none" x="128.458" y="128">헬스케어</tspan><tspan fill="#3B3838" fill-opacity="1" font-family="Apple SD Gothic Neo,Apple SD Gothic Neo_MSFontService,sans-serif" font-style="normal" font-variant="normal" font-weight="700" font-stretch="normal" font-size="83" text-anchor="start" direction="ltr" writing-mode="lr-tb" unicode-bidi="normal" text-decoration="none" x="-176.057" y="-142">U B T E C H</tspan></text><path d="M2149.17 1227.24C2150 1223.08 2153.76 1220.34 2157.57 1221.09 2161.37 1221.85 2163.79 1225.83 2162.96 1229.98 2162.14 1234.13 2158.38 1236.88 2154.57 1236.13 2150.76 1235.37 2148.35 1231.39 2149.17 1227.24Z" fill="#FFFFFF" fill-rule="evenodd" fill-opacity="1"/></g></svg>