<svg width="5390" height="1338" xmlns="http://www.w3.org/2000/svg" xmlns:xlink="http://www.w3.org/1999/xlink" overflow="hidden"><defs><clipPath id="clip0"><rect x="-495" y="330" width="5390" height="1338"/></clipPath><linearGradient x1="1913.77" y1="652.775" x2="1975.83" y2="714.832" gradientUnits="userSpaceOnUse" spreadMethod="reflect" id="fill1"><stop offset="0" stop-color="#00DC6C" stop-opacity="1"/><stop offset="0.38" stop-color="#00D06E" stop-opacity="1"/><stop offset="0.69" stop-color="#00DBA8" stop-opacity="1"/><stop offset="1" stop-color="#1EE3DE" stop-opacity="1"/></linearGradient><linearGradient x1="2010" y1="989" x2="2362" y2="989" gradientUnits="userSpaceOnUse" spreadMethod="reflect" id="fill2"><stop offset="0" stop-color="#00DC6C" stop-opacity="1"/><stop offset="0.38" stop-color="#00D06E" stop-opacity="1"/><stop offset="0.69" stop-color="#00DBA8" stop-opacity="1"/><stop offset="1" stop-color="#1EE3DE" stop-opacity="1"/></linearGradient><linearGradient x1="2395.73" y1="654.334" x2="2457.79" y2="716.391" gradientUnits="userSpaceOnUse" spreadMethod="reflect" id="fill3"><stop offset="0" stop-color="#00DC6C" stop-opacity="1"/><stop offset="0.38" stop-color="#00D06E" stop-opacity="1"/><stop offset="0.69" stop-color="#00DBA8" stop-opacity="1"/><stop offset="1" stop-color="#1EE3DE" stop-opacity="1"/></linearGradient><linearGradient x1="1903" y1="946.5" x2="1986" y2="946.5" gradientUnits="userSpaceOnUse" spreadMethod="reflect" id="fill4"><stop offset="0" stop-color="#00DC6C" stop-opacity="1"/><stop offset="0.38" stop-color="#00D06E" stop-opacity="1"/><stop offset="0.69" stop-color="#00DBA8" stop-opacity="1"/><stop offset="1" stop-color="#1EE3DE" stop-opacity="1"/></linearGradient><linearGradient x1="2385" y1="946.5" x2="2468" y2="946.5" gradientUnits="userSpaceOnUse" spreadMethod="reflect" id="fill5"><stop offset="0" stop-color="#00DC6C" stop-opacity="1"/><stop offset="0.38" stop-color="#00D06E" stop-opacity="1"/><stop offset="0.69" stop-color="#00DBA8" stop-opacity="1"/><stop offset="1" stop-color="#1EE3DE" stop-opacity="1"/></linearGradient><linearGradient x1="1901" y1="683" x2="1989" y2="683" gradientUnits="userSpaceOnUse" spreadMethod="reflect" id="fill6"><stop offset="0" stop-color="#00DC6C" stop-opacity="1"/><stop offset="0.38" stop-color="#00D06E" stop-opacity="1"/><stop offset="0.69" stop-color="#00DBA8" stop-opacity="1"/><stop offset="1" stop-color="#1EE3DE" stop-opacity="1"/></linearGradient><linearGradient x1="2383" y1="685" x2="2471" y2="685" gradientUnits="userSpaceOnUse" spreadMethod="reflect" id="fill7"><stop offset="0" stop-color="#00DC6C" stop-opacity="1"/><stop offset="0.38" stop-color="#00D06E" stop-opacity="1"/><stop offset="0.69" stop-color="#00DBA8" stop-opacity="1"/><stop offset="1" stop-color="#1EE3DE" stop-opacity="1"/></linearGradient><linearGradient x1="1818.39" y1="1285.82" x2="2545.42" y2="1285.82" gradientUnits="userSpaceOnUse" spreadMethod="reflect" id="fill8"><stop offset="0" stop-color="#00DC6C" stop-opacity="1"/><stop offset="0.38" stop-color="#00D06E" stop-opacity="1"/><stop offset="0.69" stop-color="#00DBA8" stop-opacity="1"/><stop offset="1" stop-color="#1EE3DE" stop-opacity="1"/></linearGradient></defs><g clip-path="url(#clip0)" transform="translate(495 -330)"><rect x="-493" y="334" width="5386" height="1333" fill="#FFFFFF" fill-opacity="1"/><path d="M1944.8 621.746 2006.85 683.803 1944.8 745.86 1882.74 683.803Z" fill="url(#fill1)" fill-rule="evenodd"/><rect x="2010" y="835" width="352" height="308" fill="url(#fill2)"/><path d="M2048 886.667C2048 884.089 2050.09 882 2052.67 882L2071.33 882C2073.91 882 2076 884.089 2076 886.667L2076 1091.33C2076 1093.91 2073.91 1096 2071.33 1096L2052.67 1096C2050.09 1096 2048 1093.91 2048 1091.33Z" fill="#FFFFFF" fill-rule="evenodd" fill-opacity="1"/><path d="M2110 886.667C2110 884.089 2112.09 882 2114.67 882L2133.33 882C2135.91 882 2138 884.089 2138 886.667L2138 1091.33C2138 1093.91 2135.91 1096 2133.33 1096L2114.67 1096C2112.09 1096 2110 1093.91 2110 1091.33Z" fill="#FFFFFF" fill-rule="evenodd" fill-opacity="1"/><path d="M2172 886.667C2172 884.089 2174.09 882 2176.67 882L2195.33 882C2197.91 882 2200 884.089 2200 886.667L2200 1091.33C2200 1093.91 2197.91 1096 2195.33 1096L2176.67 1096C2174.09 1096 2172 1093.91 2172 1091.33Z" fill="#FFFFFF" fill-rule="evenodd" fill-opacity="1"/><path d="M2233 886.834C2233 884.164 2235.16 882 2237.83 882L2257.17 882C2259.84 882 2262 884.164 2262 886.834L2262 1091.17C2262 1093.84 2259.84 1096 2257.17 1096L2237.83 1096C2235.16 1096 2233 1093.84 2233 1091.17Z" fill="#FFFFFF" fill-rule="evenodd" fill-opacity="1"/><path d="M2295 886.834C2295 884.164 2297.16 882 2299.83 882L2319.17 882C2321.84 882 2324 884.164 2324 886.834L2324 1091.17C2324 1093.84 2321.84 1096 2319.17 1096L2299.83 1096C2297.16 1096 2295 1093.84 2295 1091.17Z" fill="#FFFFFF" fill-rule="evenodd" fill-opacity="1"/><path d="M2426.76 623.305 2488.82 685.362 2426.76 747.419 2364.7 685.362Z" fill="url(#fill3)" fill-rule="evenodd"/><path d="M1903 757.493C1903 753.355 1906.35 750 1910.49 750L1978.51 750C1982.64 750 1986 753.355 1986 757.493L1986 1135.51C1986 1139.65 1982.64 1143 1978.51 1143L1910.49 1143C1906.35 1143 1903 1139.65 1903 1135.51Z" fill="url(#fill4)" fill-rule="evenodd"/><path d="M2385 757.493C2385 753.355 2388.35 750 2392.49 750L2460.51 750C2464.64 750 2468 753.355 2468 757.493L2468 1135.51C2468 1139.65 2464.64 1143 2460.51 1143L2392.49 1143C2388.35 1143 2385 1139.65 2385 1135.51Z" fill="url(#fill5)" fill-rule="evenodd"/><path d="M1901 639 1989 639 1989 727 1901 727Z" fill="url(#fill6)" fill-rule="evenodd"/><path d="M2383 641 2471 641 2471 729 2383 729Z" fill="url(#fill7)" fill-rule="evenodd"/><path d="M2051.75 1247.24 2051.75 1280.47 2065.86 1280.47C2079.83 1280.47 2087.62 1274.59 2087.62 1262.97 2087.62 1251.21 2079.83 1247.24 2065.86 1247.24ZM2489.15 1246.66C2472.98 1246.66 2462.69 1260.62 2462.69 1283.99 2462.69 1307.22 2472.98 1322.07 2489.15 1322.07 2505.32 1322.07 2515.61 1307.22 2515.61 1283.99 2515.61 1260.62 2505.32 1246.66 2489.15 1246.66ZM1960.35 1246.66C1944.18 1246.66 1933.89 1260.62 1933.89 1283.99 1933.89 1307.22 1944.18 1322.07 1960.35 1322.07 1976.52 1322.07 1986.81 1307.22 1986.81 1283.99 1986.81 1260.62 1976.52 1246.66 1960.35 1246.66ZM2163.18 1246.51C2160.39 1258.42 2157.16 1270.76 2153.92 1282.08L2150.69 1293.99 2176.56 1293.99 2173.33 1282.08C2169.95 1270.76 2167.01 1258.27 2163.92 1246.51ZM2224.21 1229.9 2248.32 1229.9 2266.84 1280.91C2269.2 1287.67 2271.25 1294.87 2273.46 1301.78L2274.19 1301.78C2276.55 1294.87 2278.46 1287.67 2280.81 1280.91L2298.89 1229.9 2323 1229.9 2323 1338.83 2303.15 1338.83 2303.15 1293.4C2303.15 1283.11 2304.77 1267.97 2305.95 1257.68L2305.21 1257.68 2296.39 1283.26 2279.63 1328.98 2267.14 1328.98 2250.23 1283.26 2241.56 1257.68 2240.97 1257.68C2242 1267.97 2243.77 1283.11 2243.77 1293.4L2243.77 1338.83 2224.21 1338.83ZM2151.13 1229.9 2176.71 1229.9 2211.69 1338.83 2188.91 1338.83 2181.27 1310.9 2145.99 1310.9 2138.34 1338.83 2116.29 1338.83ZM2030 1229.9 2067.92 1229.9C2090.71 1229.9 2108.79 1237.98 2108.79 1262.97 2108.79 1279.29 2100.56 1289.43 2088.06 1294.28L2113.49 1338.83 2089.24 1338.83 2066.89 1297.67 2051.75 1297.67 2051.75 1338.83 2030 1338.83ZM1817.51 1229.9 1840.59 1229.9 1851.46 1256.51C1854.55 1264.59 1857.49 1272.23 1860.87 1280.61L1861.46 1280.61C1864.84 1272.23 1868.08 1264.59 1871.16 1256.51L1882.04 1229.9 1904.68 1229.9 1871.9 1298.99 1871.9 1338.83 1850.14 1338.83 1850.14 1298.99ZM2489.15 1227.99C2517.96 1227.99 2537.81 1248.71 2537.81 1283.99 2537.81 1319.27 2517.96 1340.88 2489.15 1340.88 2460.34 1340.88 2440.49 1319.27 2440.49 1283.99 2440.49 1248.57 2460.34 1227.99 2489.15 1227.99ZM2394.81 1227.99C2408.63 1227.99 2419.66 1234.6 2426.71 1241.95L2415.39 1255.77C2409.81 1250.48 2403.49 1246.66 2395.25 1246.66 2378.79 1246.66 2366.44 1260.77 2366.44 1284.14 2366.44 1307.81 2377.61 1322.07 2394.81 1322.07 2404.22 1322.07 2411.42 1317.66 2417.3 1311.34L2428.77 1324.86C2419.8 1335.3 2408.19 1340.88 2394.08 1340.88 2366.59 1340.88 2344.24 1321.19 2344.24 1284.88 2344.24 1249.01 2367.32 1227.99 2394.81 1227.99ZM1960.35 1227.99C1989.16 1227.99 2009.01 1248.71 2009.01 1283.99 2009.01 1319.27 1989.16 1340.88 1960.35 1340.88 1931.54 1340.88 1911.69 1319.27 1911.69 1283.99 1911.69 1248.57 1931.54 1227.99 1960.35 1227.99Z" fill="url(#fill8)" fill-rule="evenodd"/><text fill="#000000" fill-opacity="0" font-family="Arial,Arial_MSFontService,sans-serif" font-size="112.896" direction="ltr" writing-mode="lr-tb" x="1817.51" y="1326.77">YORAMCO</text></g></svg>