<svg width="5389" height="1338" xmlns="http://www.w3.org/2000/svg" xmlns:xlink="http://www.w3.org/1999/xlink" overflow="hidden"><defs><clipPath id="clip0"><rect x="-481" y="467" width="5389" height="1338"/></clipPath><linearGradient x1="703.385" y1="682.88" x2="1047.71" y2="1027.21" gradientUnits="userSpaceOnUse" spreadMethod="reflect" id="fill1"><stop offset="0" stop-color="#00DC6C" stop-opacity="1"/><stop offset="0.38" stop-color="#00D06E" stop-opacity="1"/><stop offset="0.69" stop-color="#00DBA8" stop-opacity="1"/><stop offset="1" stop-color="#1EE3DE" stop-opacity="1"/></linearGradient><linearGradient x1="1235" y1="1620" x2="3190" y2="1620" gradientUnits="userSpaceOnUse" spreadMethod="reflect" id="fill2"><stop offset="0" stop-color="#00DC6C" stop-opacity="1"/><stop offset="0.38" stop-color="#00D06E" stop-opacity="1"/><stop offset="0.69" stop-color="#00DBA8" stop-opacity="1"/><stop offset="1" stop-color="#1EE3DE" stop-opacity="1"/></linearGradient><linearGradient x1="3377.55" y1="691.53" x2="3721.88" y2="1035.86" gradientUnits="userSpaceOnUse" spreadMethod="reflect" id="fill3"><stop offset="0" stop-color="#00DC6C" stop-opacity="1"/><stop offset="0.38" stop-color="#00D06E" stop-opacity="1"/><stop offset="0.69" stop-color="#00DBA8" stop-opacity="1"/><stop offset="1" stop-color="#1EE3DE" stop-opacity="1"/></linearGradient><linearGradient x1="632" y1="848.5" x2="1119" y2="848.5" gradientUnits="userSpaceOnUse" spreadMethod="reflect" id="fill4"><stop offset="0" stop-color="#00DC6C" stop-opacity="1"/><stop offset="0.38" stop-color="#00D06E" stop-opacity="1"/><stop offset="0.69" stop-color="#00DBA8" stop-opacity="1"/><stop offset="1" stop-color="#1EE3DE" stop-opacity="1"/></linearGradient><linearGradient x1="3306" y1="863.5" x2="3793" y2="863.5" gradientUnits="userSpaceOnUse" spreadMethod="reflect" id="fill5"><stop offset="0" stop-color="#00DC6C" stop-opacity="1"/><stop offset="0.38" stop-color="#00D06E" stop-opacity="1"/><stop offset="0.69" stop-color="#00DBA8" stop-opacity="1"/><stop offset="1" stop-color="#1EE3DE" stop-opacity="1"/></linearGradient><linearGradient x1="646" y1="1512.5" x2="1105" y2="1512.5" gradientUnits="userSpaceOnUse" spreadMethod="reflect" id="fill6"><stop offset="0" stop-color="#00DC6C" stop-opacity="1"/><stop offset="0.38" stop-color="#00D06E" stop-opacity="1"/><stop offset="0.69" stop-color="#00DBA8" stop-opacity="1"/><stop offset="1" stop-color="#1EE3DE" stop-opacity="1"/></linearGradient><linearGradient x1="3320" y1="1513.5" x2="3779" y2="1513.5" gradientUnits="userSpaceOnUse" spreadMethod="reflect" id="fill7"><stop offset="0" stop-color="#00DC6C" stop-opacity="1"/><stop offset="0.38" stop-color="#00D06E" stop-opacity="1"/><stop offset="0.69" stop-color="#00DBA8" stop-opacity="1"/><stop offset="1" stop-color="#1EE3DE" stop-opacity="1"/></linearGradient></defs><g clip-path="url(#clip0)" transform="translate(481 -467)"><rect x="-480" y="471" width="5385" height="1333" fill="#FFFFFF" fill-opacity="1"/><path d="M875.548 510.717 1219.87 855.042 875.548 1199.37 531.222 855.042Z" fill="url(#fill1)" fill-rule="evenodd"/><rect x="1235" y="1436" width="1955" height="368" fill="url(#fill2)"/><path d="M3549.71 519.367 3894.04 863.693 3549.71 1208.02 3205.39 863.693Z" fill="url(#fill3)" fill-rule="evenodd"/><path d="M632 605 1119 605 1119 1092 632 1092ZM875.5 848.5 875.5 848.501 875.5 848.5Z" fill="url(#fill4)" fill-rule="evenodd"/><path d="M3306 620 3793 620 3793 1107 3306 1107Z" fill="url(#fill5)" fill-rule="evenodd"/><text fill="#3B3838" fill-opacity="1" font-family="Malgun Gothic,Malgun Gothic_MSFontService,sans-serif" font-style="normal" font-variant="normal" font-weight="700" font-stretch="normal" font-size="147" text-anchor="start" direction="ltr" writing-mode="lr-tb" unicode-bidi="normal" text-decoration="none" transform="matrix(1 0 0 1 1601.97 1169)">요람에서<tspan fill="#3B3838" fill-opacity="1" font-family="Malgun Gothic,Malgun Gothic_MSFontService,sans-serif" font-style="normal" font-variant="normal" font-weight="700" font-stretch="normal" font-size="147" text-anchor="start" direction="ltr" writing-mode="lr-tb" unicode-bidi="normal" text-decoration="none" x="627.344" y="0">코드까지</tspan></text><path d="M692.102 1221 1058.9 1221C1084.36 1221 1105 1241.64 1105 1267.1L1105 1804 646 1804 646 1267.1C646 1241.64 666.64 1221 692.102 1221Z" fill="url(#fill6)" fill-rule="evenodd"/><path d="M3366.1 1222 3732.9 1222C3758.36 1222 3779 1242.64 3779 1268.1L3779 1805 3320 1805 3320 1268.1C3320 1242.64 3340.64 1222 3366.1 1222Z" fill="url(#fill7)" fill-rule="evenodd"/><path d="M2835.77 1586 2961.23 1586C2969.94 1586 2977 1593.06 2977 1601.77L2977 1804 2820 1804 2820 1601.77C2820 1593.06 2827.06 1586 2835.77 1586Z" fill="#FFFFFF" fill-rule="evenodd" fill-opacity="1"/><path d="M2149.77 1586 2275.23 1586C2283.94 1586 2291 1593.06 2291 1601.77L2291 1804 2134 1804 2134 1601.77C2134 1593.06 2141.06 1586 2149.77 1586Z" fill="#FFFFFF" fill-rule="evenodd" fill-opacity="1"/><path d="M2492.77 1586 2618.23 1586C2626.94 1586 2634 1593.06 2634 1601.77L2634 1804 2477 1804 2477 1601.77C2477 1593.06 2484.06 1586 2492.77 1586Z" fill="#FFFFFF" fill-rule="evenodd" fill-opacity="1"/><path d="M1464.77 1586 1590.23 1586C1598.94 1586 1606 1593.06 1606 1601.77L1606 1804 1449 1804 1449 1601.77C1449 1593.06 1456.06 1586 1464.77 1586Z" fill="#FFFFFF" fill-rule="evenodd" fill-opacity="1"/><path d="M1806.77 1586 1932.23 1586C1940.94 1586 1948 1593.06 1948 1601.77L1948 1804 1791 1804 1791 1601.77C1791 1593.06 1798.06 1586 1806.77 1586Z" fill="#FFFFFF" fill-rule="evenodd" fill-opacity="1"/></g></svg>